<?xml version="1.0" encoding="UTF-8"?><svg id="_レイヤー_2" xmlns="http://www.w3.org/2000/svg" xmlns:xlink="http://www.w3.org/1999/xlink" viewBox="0 0 51.024 51.024"><defs><style>.cls-1{clip-path:url(#clippath);}.cls-2{fill:none;}.cls-2,.cls-3,.cls-4,.cls-5,.cls-6,.cls-7,.cls-8,.cls-9,.cls-10,.cls-11,.cls-12{stroke-width:0px;}.cls-3{fill:#dc950f;opacity:.5;}.cls-4{fill:url(#_名称未設定グラデーション_187);opacity:.4;}.cls-5{fill:#f9efdb;}.cls-6{fill:#251e1c;}.cls-7{fill:#e2ae8f;}.cls-8{fill:#d5c2ae;}.cls-9{fill:#e9c5c3;}.cls-10{fill:#e6b99d;}.cls-11{fill:#eee;}.cls-12{fill:#f1d7bd;}</style><clipPath id="clippath"><circle class="cls-2" cx="25.512" cy="25.512" r="25.512"/></clipPath><linearGradient id="_名称未設定グラデーション_187" x1="35.671" y1="22.873" x2="35.671" y2="-1.669" gradientUnits="userSpaceOnUse"><stop offset="0" stop-color="#fff" stop-opacity="0"/><stop offset=".022" stop-color="#f9eed9" stop-opacity=".155"/><stop offset=".055" stop-color="#f2d9aa" stop-opacity=".352"/><stop offset=".09" stop-color="#ecc780" stop-opacity=".526"/><stop offset=".128" stop-color="#e7b75d" stop-opacity=".674"/><stop offset=".168" stop-color="#e3aa40" stop-opacity=".793"/><stop offset=".212" stop-color="#e0a12a" stop-opacity=".885"/><stop offset=".262" stop-color="#dd9a1a" stop-opacity=".95"/><stop offset=".322" stop-color="#dc9611" stop-opacity=".989"/><stop offset=".422" stop-color="#dc950f"/></linearGradient></defs><g id="design"><g class="cls-1"><rect class="cls-11" x="-4.531" y="-10.431" width="72.99" height="69.977"/><rect class="cls-5" x="-4.531" y="15.612" width="72.99" height="20.128"/><rect class="cls-10" x="-4.531" y="35.74" width="72.99" height="23.806"/><rect class="cls-8" x="-4.531" y="34.045" width="72.99" height="1.695"/><rect class="cls-7" x="-4.89" y="37.012" width="73.349" height=".305"/><rect class="cls-7" x="-4.89" y="38.552" width="73.349" height=".305"/><rect class="cls-7" x="-4.89" y="40.093" width="73.349" height=".305"/><rect class="cls-7" x="-4.89" y="41.634" width="73.349" height=".305"/><rect class="cls-7" x="-4.89" y="43.175" width="73.349" height=".305"/><rect class="cls-7" x="-4.89" y="44.716" width="73.349" height=".305"/><rect class="cls-7" x="-4.89" y="46.256" width="73.349" height=".305"/><rect class="cls-7" x="-4.89" y="47.797" width="73.349" height=".305"/><rect class="cls-7" x="-4.89" y="49.338" width="73.349" height=".305"/><rect class="cls-7" x="-4.89" y="50.879" width="73.349" height=".305"/><rect class="cls-9" x="-4.531" y="17.307" width="72.99" height="4.089"/><path class="cls-6" d="m6.57,26.971c-.02.576-.2.977-.599,1.306l-.039-.036c.314-.356.432-.707.432-1.316v-.599l-.014-.153.239.111h.578v-.334l-.017-.153.15.017c.105.015.181.048.181.087,0,.027-.022.041-.111.069v.314h.59l.12-.128.158.117c.056.038.081.069.081.091,0,.036-.036.051-.153.064-.167.105-.181.114-.348.226l-.042-.036c.084-.123.095-.14.173-.268h-.579v.555h.265l.131-.117.139.108c.056.042.078.072.078.101,0,.03-.036.047-.137.059-.128.247-.225.392-.378.562.256.192.548.29,1.002.334l-.003.053c-.12.048-.158.09-.206.204-.448-.143-.668-.257-.91-.474-.292.268-.628.423-1.054.49l-.018-.053c.412-.109.71-.281.957-.555-.169-.203-.241-.325-.384-.646h-.283Zm0-.066h.598v-.555h-.598v.555Zm.381.066c.131.245.211.359.381.531.125-.161.206-.298.317-.531h-.698Z"/><path class="cls-6" d="m10.955,25.819l.265.23v.039h-1.094c.003.006.006.011.006.014,0,.017-.018.031-.064.051v.45c.317.084.484.15.612.239.105.075.142.131.142.221,0,.086-.038.164-.08.164-.033,0-.069-.031-.14-.123-.206-.264-.295-.337-.534-.429v.913l.009.424v.105c0,.033-.006.047-.036.063-.039.025-.092.039-.145.039-.039,0-.053-.011-.053-.039l.002-.136.009-.415v-1.542h-.927l-.209.017-.027-.103.259.02h1.836l.17-.203Z"/><path class="cls-6" d="m12.24,25.819l.129.09c.072.047.105.083.105.11,0,.03-.027.05-.092.067v1.959c0,.063-.017.095-.067.131-.066.047-.147.075-.214.075-.047,0-.063-.025-.063-.104,0-.042-.006-.047-.056-.063l-.167-.048.006-.053.2.028c.058.008.107.011.139.011.027,0,.047-.014.047-.036v-.771h-.319c-.025.434-.145.768-.365,1.029l-.041-.03c.161-.284.228-.576.233-1.052v-1.166l-.017-.153.215.111h.235l.092-.137Zm-.35.731h.316v-.528h-.316v.528Zm0,.6h.316v-.533h-.316v.533Zm.715-1.316l.14.017c.108.014.181.047.181.086,0,.028-.02.042-.108.069v.281c.265-.098.403-.167.638-.314l.125-.103.17.128c.033.027.05.05.05.071,0,.022-.021.036-.056.036-.027,0-.063-.002-.1-.011-.271.111-.401.153-.827.253v.158c0,.087.039.101.281.101.445,0,.518-.006.582-.039.05-.03.098-.108.134-.214l.066-.212.048.003-.028.236c-.006.045-.008.081-.008.114,0,.039.011.053.056.072.047.022.072.045.072.075,0,.095-.273.137-.896.137-.415,0-.502-.039-.502-.218v-.575l-.017-.152Zm1.039,1.071l.175.137c.034.024.045.041.045.063,0,.031-.027.051-.092.067v.503l.009.373v.083c0,.039-.009.056-.037.072-.03.02-.078.03-.117.03-.044,0-.05-.005-.05-.061v-.098h-.718v.101c0,.063-.059.1-.156.1-.039,0-.05-.008-.05-.042v-.021l.002-.134.009-.354v-.647l-.017-.153.231.111h.643l.123-.131Zm-.785.596h.718v-.398h-.718v.398Zm0,.509h.718v-.442h-.718v.442Z"/><path class="cls-6" d="m15.122,28.054c0,.077-.015.1-.087.15-.063.044-.152.08-.197.08-.03,0-.044-.02-.047-.072-.009-.062-.022-.075-.078-.086l-.156-.031.003-.053.22.015h.056c.089,0,.117-.009.117-.042l-.006-.766h-.303c-.042.474-.145.793-.334,1.038l-.051-.022c.173-.387.218-.729.212-1.64v-.59l-.014-.152.22.092h.236l.111-.117.105.087c.033.03.067.074.067.094,0,.025-.028.042-.084.056l.009,1.96Zm-.465-1.194c0,.128-.003.181-.014.323h.3l-.005-.552h-.281v.229Zm0-.295h.281v-.523h-.281v.523Zm1.684.356l.125-.128.14.1c.036.028.069.07.069.087,0,.021-.03.044-.089.058-.022.46-.056.68-.128.871-.067.176-.242.323-.382.323-.033,0-.044-.014-.05-.062-.006-.027-.017-.069-.022-.077-.006-.009-.017-.015-.069-.031l-.15-.047.008-.051.182.025c.024.003.053.003.083.003.111,0,.176-.042.215-.14.072-.188.108-.447.117-.865h-.499c-.081.585-.367,1.052-.787,1.289l-.031-.039c.432-.356.64-.88.671-1.682l-.003-.128h-.442l-.125.014-.028-.097.187.017h.445v-.423l-.017-.153.14.017c.108.015.181.051.181.087,0,.027-.02.041-.108.072v.4h.459l.147-.187.242.214v.039h-.865l.02.009c.027.008.039.02.039.033,0,.02-.017.03-.067.045-.014.178-.017.205-.044.406h.439Z"/><path class="cls-6" d="m6.946,33.875c.018.006.035.05.035.056.006.056.029.225.029.236,0,.05,0,.079-.021.079-.023,0-.059-.021-.07-.062-.034-.105-.113-.192-.143-.21-.053-.041-.123-.067-.208-.067-.195,0-.336.146-.336.342,0,.207.149.298.406.471.226.151.403.304.403.566,0,.146-.082.311-.239.412-.094.062-.267.105-.397.105-.094,0-.292-.032-.383-.076-.029-.018-.067-.082-.067-.094-.015-.099-.044-.228-.044-.274,0-.012.029-.056.041-.056.023,0,.067.076.108.167.075.16.269.233.38.233.201,0,.354-.143.354-.354,0-.123-.059-.254-.365-.45-.249-.16-.424-.33-.424-.578,0-.138.062-.27.16-.356.091-.082.229-.144.433-.144.144,0,.296.044.348.053Z"/><path class="cls-6" d="m7.43,33.87c.189,0,.222.006.392.006.006,0,.029.023.032.038.034.108.052.141.11.266.164.345.503,1.046.544,1.102.006.009.023.018.029.009.026-.05.572-1.081.619-1.204.003-.011.05-.11.067-.169.003-.015.026-.041.032-.041.104,0,.341-.009.367-.009.038,0,.076.006.076.032,0,.021-.023.038-.076.047-.047.009-.087.021-.131.038s-.091.073-.091.225c0,.812.032,1.184.041,1.266.018.131.05.16.189.201.053.012.079.035.079.056,0,.023-.041.038-.085.038-.032,0-.257-.015-.364-.015-.056,0-.152.009-.223.009-.032,0-.078-.012-.078-.041,0-.026.035-.041.075-.053.12-.035.126-.103.135-.21.012-.132.006-.979-.003-1.128-.003-.012-.012-.038-.023-.018-.038.064-.365.707-.479.946-.069.152-.137.304-.181.418-.032.085-.047.082-.067.082-.018,0-.035-.023-.044-.056-.021-.073-.053-.169-.108-.31-.157-.386-.396-.848-.505-1.096-.009-.021-.018-.023-.021.009-.023.123-.056.859-.047,1.128.006.148.029.189.179.236.063.018.078.029.078.056,0,.023-.032.035-.078.035-.094,0-.217-.009-.293-.009-.07,0-.16.009-.233.009-.044,0-.076-.009-.076-.041,0-.012.021-.032.059-.041.181-.053.198-.103.222-.269.029-.202.094-1.043.1-1.263,0-.023-.006-.134-.132-.169-.049-.015-.087-.026-.125-.035-.021-.006-.047-.026-.047-.047,0-.029.021-.029.085-.029Z"/><path class="cls-6" d="m10.919,33.899c.023.079.073.21.129.362.152.427.371,1.005.421,1.125.097.239.143.263.274.295.047.015.07.029.07.05s-.021.038-.094.038c-.097,0-.239-.015-.368-.015-.094,0-.135.006-.207.006-.073,0-.091-.021-.091-.035s.018-.038.07-.047c.14-.029.128-.088.116-.148-.023-.12-.096-.313-.163-.5-.003-.012-.015-.029-.1-.029-.16,0-.418.003-.479.012-.012,0-.026.015-.032.023-.075.189-.151.438-.151.511,0,.035.012.085.143.126.05.015.079.032.079.053,0,.029-.044.038-.082.038-.049,0-.122-.009-.23-.009s-.26.015-.304.015c-.053,0-.067-.012-.067-.029s.021-.044.064-.059c.146-.05.184-.059.269-.248.067-.149.4-1.032.529-1.348.012-.023.018-.047.018-.061,0-.009,0-.015.006-.023.026-.035.067-.111.088-.144.02-.023.031-.035.046-.035.012,0,.023.012.047.076Zm.094.946c-.05-.148-.201-.587-.228-.628-.009-.018-.015-.021-.023,0-.053.141-.205.549-.229.64-.003.012.003.021.015.021.117-.003.359,0,.456-.009.003,0,.012-.015.009-.023Z"/><path class="cls-6" d="m13.009,33.875c.018.006.035.05.035.056.006.056.029.225.029.236,0,.05,0,.079-.021.079-.023,0-.059-.021-.07-.062-.034-.105-.113-.192-.143-.21-.053-.041-.123-.067-.208-.067-.195,0-.336.146-.336.342,0,.207.149.298.406.471.226.151.403.304.403.566,0,.146-.082.311-.239.412-.094.062-.267.105-.397.105-.094,0-.292-.032-.383-.076-.029-.018-.067-.082-.067-.094-.015-.099-.044-.228-.044-.274,0-.012.029-.056.041-.056.023,0,.067.076.108.167.075.16.269.233.38.233.201,0,.354-.143.354-.354,0-.123-.059-.254-.365-.45-.249-.16-.424-.33-.424-.578,0-.138.062-.27.16-.356.091-.082.229-.144.433-.144.144,0,.296.044.348.053Z"/><path class="cls-6" d="m14.51,34.288s-.017-.025-.062-.101c-.033-.059-.059-.092-.122-.169l.03-.036c.215.086.278.139.278.222,0,.036-.017.075-.05.098h.424c.072-.155.083-.181.139-.328h-1.289v.355c0,.858-.101,1.259-.427,1.69l-.047-.025c.22-.459.27-.755.278-1.665v-.695l-.014-.153.231.111h1.554l.113-.101.106.073c.075.055.103.086.103.11,0,.034-.025.054-.092.07v.104l.009.125c.002.017.002.033.002.05,0,.062-.002.078-.017.092-.027.025-.086.045-.137.045-.046,0-.052-.009-.052-.062v-.125h-.201l.056.036c.036.022.062.053.062.069,0,.022-.025.031-.114.039l-.175.184h.387l.105-.103.104.075c.075.055.105.086.105.11,0,.031-.028.051-.092.067v.128l.008.278v.078c0,.045-.008.062-.036.078-.033.017-.078.03-.117.03-.044,0-.05-.008-.05-.062v-.05h-1.334v.064c0,.061-.059.098-.155.098-.042,0-.053-.009-.05-.045v-.02l.002-.125.009-.337v-.209l-.017-.153.23.095h.323l-.011-.014Zm-.651-.381h1.612v-.249h-1.612v.249Zm1.531,1.154l.104.072c.077.056.104.087.104.111,0,.031-.027.051-.091.067v.189l.008.278.003.078c0,.044-.009.061-.039.078-.03.019-.078.03-.117.03-.044,0-.05-.009-.05-.062v-.053h-.955v.062c0,.061-.059.1-.156.1-.039,0-.05-.011-.05-.044v-.022l.002-.134.009-.351v-.231l-.017-.153.231.084h.908l.105-.101Zm-1.212-.481h.555v-.212h-.555v.212Zm0,.287h.555v-.221h-.555v.221Zm.179.576h.955v-.215h-.955v.215Zm0,.343h.955v-.276h-.955v.276Zm.616-1.418c.005.006.005.011.005.017,0,.017-.011.025-.05.039v.156h.584v-.212h-.539Zm-.045.499h.584v-.221h-.584v.221Z"/><path class="cls-6" d="m6.842,38.132l.128-.15.209.181v.036h-.582c.173.152.217.214.217.301,0,.066-.056.133-.111.133-.033,0-.041-.011-.075-.139-.041-.14-.063-.192-.133-.295h-.042c-.179.206-.265.283-.465.409l-.033-.042c.22-.206.4-.468.495-.718l.031-.104.163.062c.064.025.106.056.106.075,0,.025-.039.042-.12.05-.047.087-.058.104-.125.201h.337Zm-.596.473l.215.111h.244l.123-.117.136.117c.039.033.048.044.048.063,0,.034-.028.054-.095.07v1.256c0,.047-.02.08-.072.119-.073.053-.14.081-.198.081-.027,0-.041-.022-.047-.064-.006-.066-.011-.078-.05-.092l-.192-.041.003-.051.189.009c.069.006.122.008.125.008.039,0,.066-.021.066-.053v-.404h-.345c-.078.29-.181.474-.396.683l-.042-.027c.215-.32.295-.588.304-1.034v-.48l-.017-.153Zm.192.587c-.009.17-.011.195-.03.359h.333v-.359h-.303Zm0-.066h.303v-.343h-.303v.343Zm1.085-.662l.14.027c.128.028.167.048.167.084,0,.027-.02.038-.095.066l-.014.287h.354l.111-.12.103.075c.078.054.106.084.106.111,0,.03-.028.05-.093.066-.008.343-.047.688-.105.916-.047.198-.187.323-.356.323-.047,0-.053-.014-.063-.111-.006-.033-.02-.053-.053-.062l-.165-.038.012-.054.211.022c.042.003.073.006.084.006.064,0,.103-.03.128-.104.064-.197.089-.39.123-.966h-.401c-.064.579-.309,1.047-.693,1.319l-.036-.041c.314-.281.477-.678.529-1.278h-.329l-.125.017-.027-.097.187.014h.303c.012-.143.012-.165.015-.312l-.015-.152Zm.588-.32l.142-.167.223.194v.039h-.635c.184.153.223.203.223.292,0,.067-.044.131-.095.131-.041,0-.058-.03-.103-.164-.042-.117-.062-.161-.125-.259h-.295c-.173.236-.245.314-.424.448l-.033-.039c.195-.214.278-.367.423-.751l.034-.12.175.056c.062.02.092.042.092.067,0,.027-.039.047-.114.053-.053.108-.061.125-.111.22h.624Z"/><path class="cls-6" d="m9.171,39.13c.334-.164.562-.426.674-.776h-.677l-.017,1.779c0,.061-.056.1-.145.1-.042,0-.053-.008-.053-.042v-.024l.003-.131.008-.354.009-1.353-.014-.153.23.111h.674c.025-.111.03-.137.05-.281l.012-.173.164.039c.105.028.139.045.139.081,0,.03-.021.047-.097.078-.022.111-.028.131-.062.256h.671l.125-.137.114.087c.078.056.111.097.111.127,0,.036-.014.045-.105.075l.017,1.599c0,.063-.022.095-.105.147-.067.041-.14.066-.192.066-.05,0-.056-.009-.069-.103-.015-.059-.022-.069-.07-.081l-.223-.059.006-.056.323.039c.024.003.05.006.077.006.045,0,.059-.014.059-.056l-.017-1.59h-.74c-.03.092-.036.105-.075.192.271.089.403.145.543.217.108.059.158.125.158.218,0,.069-.036.122-.08.122-.031,0-.053-.02-.092-.069-.111-.156-.346-.334-.562-.429-.17.283-.403.465-.749.576l-.022-.051Zm1.044-.113c.025.014.039.036.039.058,0,.039-.022.051-.119.064-.048.075-.056.089-.109.17.218.064.317.103.44.17.105.056.15.117.15.203,0,.072-.031.12-.078.12-.028,0-.05-.02-.084-.067-.122-.173-.272-.289-.468-.37-.181.231-.486.435-.799.532l-.02-.048c.385-.214.576-.409.769-.771l.069-.175.209.114Z"/><rect class="cls-6" x="15.702" y="19.254" width="6.856" height=".196"/><path class="cls-6" d="m22.522,20.09c.408,0,.738-.331.738-.738s-.331-.738-.738-.738-.738.331-.738.738.331.738.738.738Z"/><rect class="cls-6" x="18.142" y="27.021" width="4.417" height=".196"/><circle class="cls-6" cx="22.522" cy="27.119" r=".738"/><rect class="cls-6" x="16.997" y="34.747" width="5.562" height=".196"/><path class="cls-6" d="m22.522,35.583c.408,0,.738-.331.738-.738s-.331-.738-.738-.738-.738.331-.738.738.331.738.738.738Z"/><rect class="cls-6" x="12.615" y="39.179" width="9.943" height=".196"/><circle class="cls-6" cx="22.522" cy="39.277" r=".738"/><rect class="cls-12" x="-4.531" y="15.612" width="72.99" height="1.695"/><path class="cls-6" d="m6.57,13.195c-.02.576-.2.977-.599,1.306l-.039-.036c.314-.356.432-.707.432-1.316v-.599l-.014-.153.239.111h.578v-.334l-.017-.153.15.017c.105.015.181.048.181.087,0,.027-.022.041-.111.069v.314h.59l.12-.128.158.117c.056.038.081.069.081.091,0,.036-.036.051-.153.064-.167.105-.181.114-.348.226l-.042-.036c.084-.123.095-.14.173-.268h-.579v.555h.265l.131-.117.139.108c.056.042.078.072.078.101,0,.03-.036.047-.137.059-.128.247-.225.392-.378.562.256.192.548.29,1.002.334l-.003.053c-.12.048-.158.09-.206.204-.448-.143-.668-.257-.91-.474-.292.268-.628.423-1.054.49l-.018-.053c.412-.109.71-.281.957-.555-.169-.203-.241-.325-.384-.646h-.283Zm0-.066h.598v-.555h-.598v.555Zm.381.066c.131.245.211.359.381.531.125-.161.206-.298.317-.531h-.698Z"/><path class="cls-6" d="m10.905,12.399l.122-.134.146.105c.053.042.069.062.069.084,0,.033-.028.044-.134.053-.103.075-.117.089-.217.167l-.051-.02c.039-.089.045-.103.09-.189h-.972c.003.009.006.011.006.017,0,.017-.012.025-.051.042v.111l.454-.011.108-.131.181.15v.036l-.743.022v.044c0,.062.017.064.329.064.331,0,.406-.02.439-.117l.05-.145.042.011-.009.128v.037c0,.021.009.038.039.056.031.021.045.039.045.061,0,.078-.128.098-.654.098-.275,0-.345-.006-.393-.025-.044-.017-.066-.058-.066-.122v-.084l-.451.009-.142.017-.036-.092.206.011.423-.011v-.176h-.654v.671c.009.632-.075.979-.323,1.367l-.05-.025c.142-.362.178-.629.178-1.345v-.679l-.014-.153.231.098h.69v-.259l-.015-.153.14.02c.108.012.181.048.181.087,0,.024-.022.039-.111.069v.036h.609l.137-.147.197.175v.039h-.943v.134h.916Zm-1.381.626h1.116l.098-.086.117.077c.059.039.077.059.077.081,0,.02-.024.033-.083.047v.159l.009.112c.002.017.002.033.002.053,0,.056-.005.074-.02.089-.021.021-.086.044-.125.044-.03,0-.042-.011-.042-.039v-.03h-1.169v.025c0,.039-.075.08-.145.08-.03,0-.045-.011-.042-.044v-.125l.012-.254v-.143l-.017-.152.211.105Zm.101.693h.938l.101-.098.122.081c.048.033.078.066.078.086,0,.025-.024.042-.08.056v.49c0,.078-.02.114-.073.145-.056.033-.125.053-.181.053-.042,0-.053-.011-.063-.069-.006-.039-.017-.05-.056-.059l-.12-.028.003-.05.175.017c.031.003.064.006.093.006.033,0,.044-.011.044-.042v-.098h-.999v.189c0,.033-.009.048-.03.064-.028.02-.078.036-.114.036-.031,0-.045-.012-.045-.042v-.025l.003-.131.008-.353v-.156l-.014-.153.212.081Zm-.12-.479h.477v-.148h-.477v.148Zm0,.226h.477v-.159h-.477v.159Zm.101.462h.999v-.143h-.999v.143Zm.999.214v-.147h-.999v.147h.999Zm-.403-1.05c.006.006.006.011.006.017,0,.017-.009.025-.051.039v.093h.518v-.148h-.473Zm-.045.374h.518v-.159h-.518v.159Z"/><path class="cls-6" d="m12.631,12.789s-.017-.025-.062-.101c-.033-.059-.059-.092-.122-.169l.03-.036c.215.086.278.139.278.222,0,.036-.017.075-.05.098h.424c.072-.155.083-.181.139-.328h-1.289v.355c0,.858-.101,1.259-.427,1.69l-.047-.025c.22-.459.27-.755.278-1.665v-.695l-.014-.153.231.111h1.554l.113-.101.106.073c.075.055.103.086.103.11,0,.034-.025.054-.092.07v.104l.009.125c.002.017.002.033.002.05,0,.062-.002.078-.017.092-.027.025-.086.045-.137.045-.046,0-.052-.009-.052-.062v-.125h-.201l.056.036c.036.022.062.053.062.069,0,.022-.025.031-.114.039l-.175.184h.387l.105-.103.104.075c.075.055.105.086.105.11,0,.031-.028.051-.092.067v.128l.008.278v.078c0,.045-.008.062-.036.078-.033.017-.078.03-.117.03-.044,0-.05-.008-.05-.062v-.05h-1.334v.064c0,.061-.059.098-.155.098-.042,0-.053-.009-.05-.045v-.02l.002-.125.009-.337v-.209l-.017-.153.23.095h.323l-.011-.014Zm-.651-.381h1.612v-.249h-1.612v.249Zm1.531,1.154l.104.072c.077.056.104.087.104.111,0,.031-.027.051-.091.067v.189l.008.278.003.078c0,.044-.009.061-.039.078-.03.019-.078.03-.117.03-.044,0-.05-.009-.05-.062v-.053h-.955v.062c0,.061-.059.1-.156.1-.039,0-.05-.011-.05-.044v-.022l.002-.134.009-.351v-.231l-.017-.153.231.084h.908l.105-.101Zm-1.212-.481h.555v-.212h-.555v.212Zm0,.287h.555v-.221h-.555v.221Zm.179.576h.955v-.215h-.955v.215Zm0,.343h.955v-.276h-.955v.276Zm.616-1.418c.005.006.005.011.005.017,0,.017-.011.025-.05.039v.156h.584v-.212h-.539Zm-.045.499h.584v-.221h-.584v.221Z"/><path class="cls-6" d="m8.181,19.898l.236.23v.036h-2.241l-.209.02-.027-.103.259.017h1.821l.161-.2Zm-1.219.384c.041.017.069.041.069.059,0,.033-.045.05-.153.053-.34.217-.543.303-.874.378l-.018-.053c.312-.134.471-.229.691-.412l.098-.105.187.081Zm.072-2.04l.14.02c.108.011.181.047.181.086,0,.025-.022.039-.111.069v.117h.762l.147-.173.231.2v.039h-1.141v.227h.399l.111-.129.173.132c.034.024.045.044.045.063,0,.033-.025.053-.092.069v.448l.009.374c.002.036.002.063.002.083,0,.039-.008.056-.039.072-.03.02-.075.03-.114.03-.047,0-.053-.006-.053-.061v-.045h-1.029v.05c0,.064-.059.101-.156.101-.039,0-.05-.009-.05-.042v-.022l.002-.133.009-.354v-.595l-.017-.154.231.112h.373v-.227h-.777l-.209.017-.027-.103.262.02h.752v-.14l-.014-.152Zm-.379.905h1.029v-.254h-1.029v.254Zm0,.322h1.029v-.256h-1.029v.256Zm0,.329h1.029v-.263h-1.029v.263Zm.826.464c.268.044.393.078.538.131.149.059.205.119.205.223,0,.063-.027.111-.063.111-.02,0-.053-.02-.101-.062-.194-.176-.265-.214-.596-.354l.017-.05Z"/><path class="cls-6" d="m9.353,19.45c-.02.576-.2.977-.599,1.306l-.039-.036c.314-.356.432-.707.432-1.316v-.599l-.014-.153.239.111h.578v-.334l-.017-.153.15.017c.105.015.181.048.181.087,0,.027-.022.041-.111.069v.314h.59l.12-.128.158.117c.056.038.081.069.081.091,0,.036-.036.051-.153.064-.167.105-.181.114-.348.226l-.042-.036c.084-.123.095-.14.173-.268h-.579v.555h.265l.131-.117.139.108c.056.042.078.072.078.101,0,.03-.036.047-.137.059-.128.247-.225.392-.378.562.256.192.548.29,1.002.334l-.003.053c-.12.048-.158.09-.206.204-.448-.143-.668-.257-.91-.474-.292.268-.628.423-1.054.49l-.018-.053c.412-.109.71-.281.957-.555-.169-.203-.241-.325-.384-.646h-.283Zm0-.066h.598v-.555h-.598v.555Zm.381.066c.131.245.211.359.381.531.125-.161.206-.298.317-.531h-.698Z"/><path class="cls-6" d="m12.631,19.043s-.017-.025-.062-.101c-.033-.059-.059-.092-.122-.169l.03-.036c.215.086.278.139.278.222,0,.036-.017.075-.05.098h.424c.072-.155.083-.181.139-.328h-1.289v.355c0,.858-.101,1.259-.427,1.69l-.047-.025c.22-.459.27-.755.278-1.665v-.695l-.014-.153.231.111h1.554l.113-.101.106.073c.075.055.103.086.103.11,0,.034-.025.054-.092.07v.104l.009.125c.002.017.002.033.002.05,0,.062-.002.078-.017.092-.027.025-.086.045-.137.045-.046,0-.052-.009-.052-.062v-.125h-.201l.056.036c.036.022.062.053.062.069,0,.022-.025.031-.114.039l-.175.184h.387l.105-.103.104.075c.075.055.105.086.105.11,0,.031-.028.051-.092.067v.128l.008.278v.078c0,.045-.008.062-.036.078-.033.017-.078.03-.117.03-.044,0-.05-.008-.05-.062v-.05h-1.334v.064c0,.061-.059.098-.155.098-.042,0-.053-.009-.05-.045v-.02l.002-.125.009-.337v-.209l-.017-.153.23.095h.323l-.011-.014Zm-.651-.381h1.612v-.249h-1.612v.249Zm1.531,1.154l.104.072c.077.056.104.087.104.111,0,.031-.027.051-.091.067v.189l.008.278.003.078c0,.044-.009.061-.039.078-.03.019-.078.03-.117.03-.044,0-.05-.009-.05-.062v-.053h-.955v.062c0,.061-.059.1-.156.1-.039,0-.05-.011-.05-.044v-.022l.002-.134.009-.351v-.231l-.017-.153.231.084h.908l.105-.101Zm-1.212-.481h.555v-.212h-.555v.212Zm0,.287h.555v-.221h-.555v.221Zm.179.576h.955v-.215h-.955v.215Zm0,.343h.955v-.276h-.955v.276Zm.616-1.418c.005.006.005.011.005.017,0,.017-.011.025-.05.039v.156h.584v-.212h-.539Zm-.045.499h.584v-.221h-.584v.221Z"/><polygon class="cls-6" points="22.611 16.478 22.413 16.478 22.413 13.351 15.702 13.351 15.702 13.154 22.611 13.154 22.611 16.478"/><circle class="cls-6" cx="22.512" cy="16.441" r=".738"/><circle class="cls-3" cx="35.671" cy="24.395" r="7.106"/><polygon class="cls-4" points="38.343 6.708 33 6.708 28.565 24.395 42.778 24.395 38.343 6.708"/></g></g></svg>