<svg width="160" height="160" viewBox="0 0 160 160" fill="none" xmlns="http://www.w3.org/2000/svg">
<mask id="mask0_0_3" style="mask-type:alpha" maskUnits="userSpaceOnUse" x="0" y="0" width="160" height="160">
<path d="M80 160C124.183 160 160 124.183 160 80C160 35.8172 124.183 0 80 0C35.8172 0 0 35.8172 0 80C0 124.183 35.8172 160 80 160Z" fill="black"/>
</mask>
<g mask="url(#mask0_0_3)">
<path d="M214.674 -32.709H-14.209V186.725H214.674V-32.709Z" fill="#EEEEEE"/>
<path d="M214.674 48.958H-14.209V112.075H214.674V48.958Z" fill="#F9EFDB"/>
<path d="M214.674 112.074H-14.209V186.725H214.674V112.074Z" fill="#E6B99D"/>
<path d="M214.674 106.759H-14.209V112.074H214.674V106.759Z" fill="#D5C2AE"/>
<path d="M214.674 116.061H-15.333V117.019H214.674V116.061Z" fill="#E2AE8F"/>
<path d="M214.674 120.893H-15.333V121.851H214.674V120.893Z" fill="#E2AE8F"/>
<path d="M214.674 125.724H-15.333V126.682H214.674V125.724Z" fill="#E2AE8F"/>
<path d="M214.674 130.556H-15.333V131.514H214.674V130.556Z" fill="#E2AE8F"/>
<path d="M214.674 135.387H-15.333V136.345H214.674V135.387Z" fill="#E2AE8F"/>
<path d="M214.674 140.219H-15.333V141.177H214.674V140.219Z" fill="#E2AE8F"/>
<path d="M214.674 145.051H-15.333V146.009H214.674V145.051Z" fill="#E2AE8F"/>
<path d="M214.674 149.882H-15.333V150.84H214.674V149.882Z" fill="#E2AE8F"/>
<path d="M214.674 154.714H-15.333V155.672H214.674V154.714Z" fill="#E2AE8F"/>
<path d="M214.674 159.545H-15.333V160.503H214.674V159.545Z" fill="#E2AE8F"/>
<path d="M214.674 54.272H-14.209V67.096H214.674V54.272Z" fill="#E9C5C3"/>
<path d="M20.601 84.576C20.54 86.383 19.973 87.638 18.724 88.67L18.602 88.557C19.588 87.439 19.956 86.34 19.956 84.429V82.552L19.913 82.071L20.663 82.42H22.476V81.373L22.424 80.892L22.896 80.944C23.227 80.99 23.463 81.094 23.463 81.217C23.463 81.303 23.393 81.346 23.114 81.434V82.42H24.964L25.341 82.019L25.837 82.386C26.012 82.505 26.091 82.603 26.091 82.671C26.091 82.784 25.978 82.83 25.61 82.873C25.086 83.204 25.043 83.231 24.52 83.58L24.388 83.467C24.651 83.081 24.685 83.029 24.93 82.628H23.114V84.367H23.944L24.354 84L24.789 84.34C24.964 84.472 25.034 84.567 25.034 84.655C25.034 84.75 24.921 84.802 24.605 84.839C24.204 85.614 23.901 86.067 23.42 86.6C24.222 87.203 25.138 87.51 26.562 87.647L26.553 87.812C26.176 87.962 26.057 88.094 25.907 88.452C24.501 88.005 23.812 87.647 23.053 86.967C22.137 87.806 21.084 88.293 19.749 88.504L19.694 88.339C20.986 87.996 21.92 87.457 22.695 86.6C22.165 85.963 21.939 85.58 21.492 84.576H20.604H20.601ZM20.601 84.368H22.475V82.629H20.601V84.368ZM21.795 84.576C22.205 85.345 22.456 85.703 22.989 86.242C23.381 85.737 23.635 85.308 23.984 84.576H21.795Z" fill="#251E1C"/>
<path d="M34.354 80.963L35.184 81.686V81.808H31.754C31.763 81.826 31.772 81.842 31.772 81.851C31.772 81.903 31.717 81.949 31.57 82.01V83.422C32.565 83.685 33.089 83.894 33.49 84.172C33.821 84.408 33.934 84.582 33.934 84.864C33.934 85.133 33.815 85.378 33.683 85.378C33.579 85.378 33.466 85.28 33.245 84.992C32.599 84.165 32.32 83.936 31.57 83.648V86.511L31.598 87.84V88.171C31.598 88.275 31.58 88.318 31.485 88.37C31.363 88.45 31.197 88.492 31.032 88.492C30.91 88.492 30.867 88.458 30.867 88.37L30.873 87.944L30.901 86.643V81.808H27.995L27.34 81.86L27.254 81.538L28.066 81.599H33.823L34.356 80.962L34.354 80.963Z" fill="#251E1C"/>
<path d="M38.384 80.963L38.788 81.245C39.015 81.392 39.119 81.505 39.119 81.591C39.119 81.686 39.033 81.747 38.831 81.802V87.945C38.831 88.144 38.779 88.242 38.62 88.355C38.412 88.502 38.158 88.591 37.949 88.591C37.802 88.591 37.75 88.511 37.75 88.266C37.75 88.134 37.732 88.119 37.575 88.067L37.051 87.917L37.069 87.752L37.697 87.841C37.878 87.865 38.034 87.875 38.132 87.875C38.218 87.875 38.279 87.832 38.279 87.762V85.346H37.278C37.198 86.706 36.825 87.753 36.133 88.574L36.004 88.479C36.509 87.588 36.718 86.672 36.736 85.181V81.525L36.684 81.044L37.358 81.393H38.096L38.384 80.963ZM37.288 83.257H38.28V81.6H37.288V83.257ZM37.288 85.137H38.28V83.465H37.288V85.137ZM39.53 81.009L39.968 81.061C40.308 81.104 40.535 81.208 40.535 81.33C40.535 81.419 40.474 81.462 40.195 81.547V82.429C41.025 82.123 41.46 81.905 42.195 81.443L42.587 81.121L43.12 81.522C43.224 81.608 43.276 81.678 43.276 81.746C43.276 81.816 43.209 81.859 43.101 81.859C43.015 81.859 42.902 81.853 42.789 81.825C41.941 82.174 41.53 82.306 40.195 82.618V83.114C40.195 83.387 40.317 83.429 41.077 83.429C42.473 83.429 42.7 83.411 42.902 83.307C43.058 83.212 43.208 82.967 43.322 82.636L43.53 81.971L43.68 81.98L43.591 82.721C43.573 82.862 43.567 82.975 43.567 83.079C43.567 83.201 43.601 83.244 43.742 83.306C43.889 83.376 43.969 83.447 43.969 83.542C43.969 83.839 43.112 83.971 41.158 83.971C39.857 83.971 39.584 83.849 39.584 83.288V81.484L39.532 81.006L39.53 81.009ZM42.788 84.368L43.336 84.797C43.443 84.874 43.477 84.926 43.477 84.996C43.477 85.094 43.391 85.155 43.189 85.207V86.784L43.217 87.954V88.214C43.217 88.336 43.189 88.389 43.101 88.441C43.006 88.502 42.856 88.536 42.734 88.536C42.596 88.536 42.578 88.521 42.578 88.346V88.04H40.327V88.355C40.327 88.554 40.143 88.667 39.837 88.667C39.715 88.667 39.681 88.643 39.681 88.535V88.468L39.687 88.048L39.715 86.939V84.909L39.663 84.428L40.389 84.777H42.404L42.79 84.367L42.788 84.368ZM40.326 86.236H42.577V84.987H40.326V86.236ZM40.326 87.831H42.577V86.444H40.326V87.831Z" fill="#251E1C"/>
<path d="M47.421 87.972C47.421 88.214 47.375 88.284 47.148 88.444C46.949 88.582 46.67 88.695 46.529 88.695C46.434 88.695 46.391 88.634 46.382 88.468C46.354 88.275 46.312 88.232 46.137 88.199L45.647 88.101L45.656 87.936L46.345 87.982H46.52C46.799 87.982 46.887 87.954 46.887 87.85L46.869 85.449H45.92C45.788 86.934 45.467 87.936 44.873 88.704L44.714 88.634C45.256 87.421 45.397 86.35 45.379 83.492V81.642L45.336 81.164L46.025 81.452H46.766L47.115 81.085L47.446 81.358C47.55 81.453 47.657 81.591 47.657 81.652C47.657 81.732 47.568 81.784 47.394 81.827L47.422 87.973L47.421 87.972ZM45.963 84.227C45.963 84.628 45.954 84.794 45.92 85.241H46.86L46.845 83.511H45.963V84.227ZM45.963 83.302H46.845V81.661H45.963V83.302ZM51.242 84.42L51.634 84.019L52.072 84.331C52.185 84.42 52.289 84.551 52.289 84.604C52.289 84.671 52.194 84.742 52.01 84.785C51.94 86.227 51.835 86.916 51.609 87.517C51.398 88.068 50.85 88.531 50.412 88.531C50.308 88.531 50.274 88.488 50.256 88.338C50.238 88.252 50.204 88.121 50.186 88.096C50.168 88.068 50.134 88.05 49.969 87.998L49.497 87.851L49.521 87.692L50.091 87.772C50.168 87.781 50.256 87.781 50.351 87.781C50.7 87.781 50.902 87.649 51.025 87.343C51.252 86.752 51.365 85.94 51.392 84.63H49.827C49.573 86.464 48.676 87.928 47.359 88.672L47.261 88.55C48.615 87.432 49.267 85.791 49.365 83.277L49.356 82.876H47.969L47.577 82.919L47.488 82.616L48.073 82.668H49.469V81.342L49.417 80.861L49.855 80.913C50.195 80.959 50.422 81.072 50.422 81.186C50.422 81.272 50.361 81.315 50.082 81.413V82.669H51.521L51.983 82.084L52.742 82.755V82.877H50.029L50.09 82.905C50.176 82.929 50.212 82.966 50.212 83.009C50.212 83.07 50.16 83.104 50.001 83.15C49.958 83.707 49.949 83.793 49.863 84.424H51.241L51.242 84.42Z" fill="#251E1C"/>
<path d="M21.783 106.227C21.838 106.245 21.893 106.383 21.893 106.402C21.911 106.577 21.985 107.106 21.985 107.143C21.985 107.299 21.985 107.391 21.921 107.391C21.848 107.391 21.737 107.327 21.701 107.198C21.594 106.867 21.346 106.595 21.254 106.54C21.089 106.411 20.868 106.329 20.602 106.329C19.99 106.329 19.549 106.785 19.549 107.401C19.549 108.05 20.018 108.335 20.823 108.877C21.53 109.352 22.088 109.829 22.088 110.653C22.088 111.112 21.831 111.627 21.338 111.945C21.044 112.138 20.502 112.276 20.092 112.276C19.798 112.276 19.176 112.175 18.892 112.037C18.8 111.982 18.681 111.78 18.681 111.743C18.635 111.434 18.543 111.029 18.543 110.882C18.543 110.845 18.635 110.707 18.672 110.707C18.745 110.707 18.883 110.946 19.012 111.231C19.248 111.733 19.854 111.963 20.203 111.963C20.834 111.963 21.312 111.516 21.312 110.854C21.312 110.468 21.128 110.058 20.167 109.442C19.386 108.94 18.838 108.407 18.838 107.629C18.838 107.197 19.031 106.784 19.34 106.511C19.625 106.254 20.057 106.061 20.697 106.061C21.147 106.061 21.625 106.199 21.787 106.226L21.783 106.227Z" fill="#251E1C"/>
<path d="M23.299 106.208C23.893 106.208 23.994 106.226 24.527 106.226C24.545 106.226 24.619 106.299 24.628 106.345C24.735 106.685 24.79 106.786 24.974 107.178C25.488 108.259 26.551 110.458 26.68 110.632C26.698 110.66 26.753 110.687 26.772 110.66C26.855 110.504 28.566 107.27 28.714 106.884C28.723 106.85 28.87 106.538 28.925 106.354C28.934 106.308 29.008 106.225 29.026 106.225C29.354 106.225 30.095 106.197 30.177 106.197C30.296 106.197 30.416 106.215 30.416 106.298C30.416 106.362 30.343 106.417 30.177 106.445C30.03 106.473 29.904 106.509 29.767 106.564C29.63 106.619 29.482 106.794 29.482 107.268C29.482 109.816 29.583 110.98 29.611 111.237C29.666 111.647 29.767 111.739 30.205 111.868C30.37 111.905 30.453 111.978 30.453 112.043C30.453 112.116 30.324 112.162 30.187 112.162C30.086 112.162 29.382 112.116 29.045 112.116C28.87 112.116 28.567 112.144 28.347 112.144C28.246 112.144 28.102 112.107 28.102 112.015C28.102 111.932 28.212 111.886 28.338 111.85C28.715 111.74 28.733 111.528 28.761 111.192C28.798 110.779 28.779 108.121 28.752 107.655C28.743 107.618 28.715 107.536 28.679 107.6C28.56 107.802 27.534 109.817 27.175 110.567C26.958 111.045 26.746 111.519 26.608 111.878C26.507 112.144 26.461 112.135 26.397 112.135C26.342 112.135 26.287 112.062 26.259 111.96C26.195 111.73 26.094 111.43 25.919 110.989C25.426 109.779 24.676 108.331 24.336 107.553C24.308 107.489 24.281 107.48 24.272 107.581C24.199 107.967 24.097 110.276 24.125 111.118C24.143 111.583 24.217 111.712 24.685 111.859C24.884 111.914 24.93 111.951 24.93 112.034C24.93 112.107 24.829 112.144 24.685 112.144C24.391 112.144 24.005 112.116 23.766 112.116C23.546 112.116 23.264 112.144 23.034 112.144C22.896 112.144 22.795 112.116 22.795 112.015C22.795 111.978 22.859 111.914 22.979 111.886C23.546 111.721 23.601 111.564 23.674 111.044C23.766 110.41 23.968 107.773 23.986 107.084C23.986 107.011 23.968 106.664 23.573 106.554C23.42 106.508 23.3 106.471 23.181 106.444C23.117 106.426 23.034 106.361 23.034 106.297C23.034 106.205 23.098 106.205 23.3 106.205L23.299 106.208Z" fill="#251E1C"/>
<path d="M34.241 106.3C34.314 106.548 34.471 106.958 34.645 107.436C35.123 108.774 35.809 110.587 35.965 110.964C36.268 111.714 36.412 111.788 36.826 111.889C36.973 111.935 37.046 111.981 37.046 112.045C37.046 112.109 36.982 112.164 36.752 112.164C36.449 112.164 36.002 112.118 35.598 112.118C35.304 112.118 35.175 112.136 34.949 112.136C34.719 112.136 34.664 112.072 34.664 112.026C34.664 111.98 34.719 111.907 34.884 111.879C35.322 111.787 35.285 111.603 35.248 111.414C35.175 111.037 34.948 110.431 34.737 109.846C34.728 109.809 34.691 109.754 34.425 109.754C33.923 109.754 33.114 109.763 32.921 109.791C32.884 109.791 32.838 109.837 32.82 109.864C32.584 110.458 32.345 111.239 32.345 111.466C32.345 111.576 32.382 111.732 32.792 111.861C32.948 111.907 33.04 111.962 33.04 112.026C33.04 112.118 32.902 112.145 32.783 112.145C32.63 112.145 32.4 112.117 32.06 112.117C31.72 112.117 31.245 112.163 31.108 112.163C30.943 112.163 30.897 112.126 30.897 112.071C30.897 112.016 30.961 111.933 31.099 111.887C31.558 111.731 31.675 111.703 31.941 111.109C32.152 110.64 33.197 107.872 33.601 106.883C33.638 106.81 33.656 106.736 33.656 106.693C33.656 106.665 33.656 106.647 33.674 106.62C33.757 106.51 33.885 106.271 33.95 106.17C34.011 106.097 34.048 106.06 34.094 106.06C34.131 106.06 34.167 106.097 34.241 106.299V106.3ZM34.535 109.267C34.379 108.802 33.904 107.427 33.821 107.298C33.793 107.243 33.775 107.234 33.748 107.298C33.583 107.739 33.105 109.019 33.031 109.304C33.022 109.341 33.04 109.368 33.077 109.368C33.444 109.359 34.204 109.368 34.507 109.34C34.516 109.34 34.544 109.294 34.535 109.267Z" fill="#251E1C"/>
<path d="M40.794 106.227C40.849 106.245 40.904 106.383 40.904 106.402C40.922 106.577 40.996 107.106 40.996 107.143C40.996 107.299 40.996 107.391 40.932 107.391C40.859 107.391 40.748 107.327 40.712 107.198C40.605 106.867 40.357 106.595 40.265 106.54C40.1 106.411 39.879 106.329 39.613 106.329C39.001 106.329 38.56 106.785 38.56 107.401C38.56 108.05 39.029 108.335 39.834 108.877C40.541 109.352 41.099 109.829 41.099 110.653C41.099 111.112 40.842 111.627 40.349 111.945C40.055 112.138 39.513 112.276 39.103 112.276C38.809 112.276 38.187 112.175 37.903 112.037C37.811 111.982 37.692 111.78 37.692 111.743C37.646 111.434 37.554 111.029 37.554 110.882C37.554 110.845 37.646 110.707 37.683 110.707C37.756 110.707 37.894 110.946 38.023 111.231C38.259 111.733 38.865 111.963 39.214 111.963C39.845 111.963 40.323 111.516 40.323 110.854C40.323 110.468 40.139 110.058 39.178 109.442C38.397 108.94 37.849 108.407 37.849 107.629C37.849 107.197 38.042 106.784 38.351 106.511C38.636 106.254 39.068 106.061 39.708 106.061C40.158 106.061 40.636 106.199 40.798 106.226L40.794 106.227Z" fill="#251E1C"/>
<path d="M45.501 107.519C45.492 107.51 45.449 107.439 45.308 107.204C45.204 107.02 45.124 106.916 44.925 106.674L45.02 106.561C45.694 106.83 45.893 106.996 45.893 107.256C45.893 107.369 45.841 107.492 45.737 107.562H47.066C47.293 107.075 47.326 106.995 47.501 106.533H43.459V107.648C43.459 110.34 43.144 111.595 42.121 112.949L41.974 112.869C42.663 111.43 42.819 110.502 42.847 107.648V105.468L42.804 104.987L43.53 105.336H48.402L48.757 105.021L49.091 105.251C49.327 105.422 49.413 105.52 49.413 105.597C49.413 105.704 49.333 105.765 49.125 105.817V106.142L49.153 106.534C49.159 106.586 49.159 106.638 49.159 106.69C49.159 106.883 49.153 106.935 49.107 106.978C49.021 107.058 48.838 107.119 48.678 107.119C48.534 107.119 48.516 107.091 48.516 106.926V106.534H47.885L48.06 106.647C48.173 106.717 48.253 106.812 48.253 106.864C48.253 106.934 48.173 106.962 47.895 106.986L47.347 107.562H48.56L48.891 107.24L49.216 107.476C49.452 107.647 49.547 107.745 49.547 107.822C49.547 107.92 49.458 107.981 49.259 108.033V108.434L49.283 109.307V109.552C49.283 109.693 49.259 109.745 49.17 109.797C49.066 109.849 48.925 109.892 48.803 109.892C48.665 109.892 48.647 109.868 48.647 109.699V109.543H44.464V109.745C44.464 109.935 44.28 110.051 43.977 110.051C43.845 110.051 43.812 110.023 43.821 109.91V109.849L43.827 109.457L43.855 108.401V107.746L43.803 107.265L44.526 107.562H45.54L45.506 107.519H45.501ZM43.458 106.325H48.514V105.544H43.458V106.325ZM48.26 109.945L48.585 110.172C48.827 110.347 48.913 110.445 48.913 110.521C48.913 110.619 48.827 110.68 48.628 110.732V111.326L48.652 112.199L48.661 112.444C48.661 112.582 48.633 112.634 48.539 112.689C48.444 112.747 48.294 112.784 48.172 112.784C48.034 112.784 48.016 112.756 48.016 112.591V112.426H45.021V112.619C45.021 112.809 44.837 112.931 44.531 112.931C44.409 112.931 44.375 112.897 44.375 112.793V112.723L44.381 112.303L44.409 111.204V110.478L44.357 109.997L45.083 110.26H47.931L48.262 109.945H48.26ZM44.46 108.435H46.199V107.77H44.46V108.435ZM44.46 109.335H46.199V108.643H44.46V109.335ZM45.02 111.142H48.015V110.468H45.02V111.142ZM45.02 112.217H48.015V111.35H45.02V112.217ZM46.952 107.771C46.967 107.789 46.967 107.805 46.967 107.823C46.967 107.875 46.933 107.903 46.811 107.945V108.435H48.642V107.77L46.952 107.771ZM46.811 109.336H48.642V108.644H46.811V109.336Z" fill="#251E1C"/>
<path d="M21.455 119.575L21.856 119.103L22.511 119.67V119.783H20.686C21.228 120.261 21.366 120.454 21.366 120.726C21.366 120.934 21.191 121.142 21.017 121.142C20.913 121.142 20.888 121.108 20.781 120.707C20.652 120.269 20.582 120.104 20.365 119.782H20.233C19.673 120.428 19.403 120.67 18.775 121.065L18.671 120.933C19.36 120.287 19.927 119.466 20.224 118.682L20.322 118.357L20.833 118.55C21.035 118.63 21.167 118.725 21.167 118.786C21.167 118.866 21.045 118.918 20.79 118.942C20.643 119.215 20.609 119.267 20.398 119.573H21.454L21.455 119.575ZM19.587 121.057L20.261 121.406H21.027L21.413 121.039L21.839 121.406C21.961 121.51 21.989 121.544 21.989 121.605C21.989 121.712 21.9 121.773 21.692 121.825V125.763C21.692 125.91 21.631 126.014 21.465 126.137C21.235 126.302 21.027 126.391 20.843 126.391C20.757 126.391 20.714 126.321 20.696 126.189C20.678 125.981 20.662 125.944 20.54 125.901L19.937 125.772L19.946 125.613L20.54 125.641C20.757 125.659 20.923 125.665 20.932 125.665C21.054 125.665 21.14 125.598 21.14 125.5V124.232H20.059C19.814 125.142 19.492 125.717 18.819 126.373L18.687 126.287C19.361 125.283 19.612 124.443 19.639 123.044V121.537L19.587 121.056V121.057ZM20.19 122.897C20.162 123.43 20.156 123.509 20.095 124.024H21.139V122.897H20.19ZM20.19 122.689H21.139V121.614H20.19V122.689ZM23.592 120.613L24.03 120.699C24.431 120.788 24.554 120.849 24.554 120.962C24.554 121.048 24.493 121.081 24.257 121.17L24.214 122.07H25.323L25.672 121.693L25.994 121.929C26.239 122.097 26.328 122.192 26.328 122.278C26.328 122.373 26.239 122.434 26.037 122.486C26.013 123.561 25.89 124.642 25.706 125.358C25.559 125.98 25.121 126.372 24.588 126.372C24.441 126.372 24.423 126.329 24.389 126.023C24.371 125.919 24.328 125.858 24.224 125.83L23.706 125.711L23.743 125.543L24.404 125.613C24.536 125.622 24.634 125.631 24.667 125.631C24.869 125.631 24.989 125.536 25.068 125.306C25.27 124.687 25.347 124.084 25.454 122.277H24.195C23.993 124.093 23.227 125.56 22.021 126.414L21.908 126.285C22.894 125.403 23.402 124.16 23.568 122.276H22.536L22.144 122.328L22.058 122.025L22.643 122.068H23.592C23.629 121.621 23.629 121.55 23.638 121.088L23.592 120.61V120.613ZM25.436 119.609L25.88 119.085L26.578 119.694V119.816H24.588C25.164 120.297 25.286 120.453 25.286 120.732C25.286 120.943 25.148 121.142 24.989 121.142C24.86 121.142 24.808 121.047 24.667 120.628C24.535 120.261 24.474 120.123 24.275 119.816H23.35C22.808 120.557 22.581 120.802 22.021 121.222L21.917 121.1C22.529 120.429 22.79 119.949 23.243 118.745L23.35 118.368L23.898 118.543C24.091 118.604 24.186 118.675 24.186 118.754C24.186 118.84 24.064 118.901 23.828 118.919C23.663 119.259 23.638 119.311 23.479 119.608L25.436 119.609Z" fill="#251E1C"/>
<path d="M28.759 122.705C29.806 122.191 30.523 121.37 30.872 120.27H28.75L28.698 125.85C28.698 126.04 28.523 126.162 28.245 126.162C28.113 126.162 28.08 126.138 28.08 126.03V125.953L28.089 125.543L28.113 124.434L28.141 120.193L28.098 119.712L28.821 120.061H30.934C31.014 119.712 31.029 119.632 31.09 119.179L31.127 118.637L31.641 118.759C31.972 118.848 32.076 118.9 32.076 119.013C32.076 119.108 32.009 119.16 31.773 119.258C31.703 119.607 31.684 119.668 31.58 120.06H33.684L34.076 119.631L34.434 119.904C34.679 120.079 34.783 120.207 34.783 120.302C34.783 120.415 34.74 120.443 34.452 120.538L34.504 125.551C34.504 125.75 34.434 125.848 34.173 126.013C33.962 126.142 33.735 126.221 33.57 126.221C33.414 126.221 33.395 126.193 33.353 125.899C33.307 125.715 33.283 125.682 33.133 125.645L32.435 125.461L32.453 125.286L33.467 125.408C33.544 125.417 33.623 125.426 33.709 125.426C33.85 125.426 33.893 125.383 33.893 125.251L33.841 120.266H31.52C31.425 120.554 31.407 120.597 31.284 120.869C32.132 121.148 32.549 121.322 32.987 121.549C33.327 121.733 33.483 121.941 33.483 122.232C33.483 122.449 33.37 122.615 33.232 122.615C33.134 122.615 33.067 122.554 32.944 122.398C32.595 121.908 31.86 121.351 31.18 121.054C30.647 121.942 29.915 122.512 28.831 122.861L28.761 122.702L28.759 122.705ZM32.033 122.35C32.113 122.393 32.155 122.463 32.155 122.531C32.155 122.653 32.085 122.69 31.781 122.733C31.631 122.969 31.606 123.012 31.438 123.266C32.121 123.468 32.433 123.588 32.819 123.799C33.15 123.974 33.291 124.166 33.291 124.436C33.291 124.663 33.193 124.813 33.046 124.813C32.957 124.813 32.89 124.752 32.783 124.602C32.4 124.06 31.929 123.696 31.316 123.441C30.749 124.167 29.791 124.804 28.811 125.11L28.75 124.96C29.957 124.289 30.557 123.677 31.16 122.541L31.377 121.993L32.032 122.351L32.033 122.35Z" fill="#251E1C"/>
<path d="M70.74 60.376H49.24V60.992H70.74V60.376Z" fill="#251E1C"/>
<path d="M70.624 63C71.903 63 72.939 61.963 72.939 60.685C72.939 59.407 71.902 58.369 70.624 58.369C69.346 58.369 68.309 59.406 68.309 60.685C68.309 61.964 69.346 63 70.624 63Z" fill="#251E1C"/>
<path d="M70.74 84.731H56.889V85.347H70.74V84.731Z" fill="#251E1C"/>
<path d="M70.624 87.354C71.9025 87.354 72.939 86.3175 72.939 85.039C72.939 83.7605 71.9025 82.724 70.624 82.724C69.3454 82.724 68.309 83.7605 68.309 85.039C68.309 86.3175 69.3454 87.354 70.624 87.354Z" fill="#251E1C"/>
<path d="M70.74 108.958H53.3V109.574H70.74V108.958Z" fill="#251E1C"/>
<path d="M70.624 111.582C71.903 111.582 72.939 110.545 72.939 109.266C72.939 107.987 71.902 106.951 70.624 106.951C69.346 106.951 68.309 107.988 68.309 109.266C68.309 110.544 69.346 111.582 70.624 111.582Z" fill="#251E1C"/>
<path d="M70.74 122.857H39.56V123.473H70.74V122.857Z" fill="#251E1C"/>
<path d="M70.624 125.479C71.9025 125.479 72.939 124.443 72.939 123.164C72.939 121.885 71.9025 120.849 70.624 120.849C69.3454 120.849 68.309 121.885 68.309 123.164C68.309 124.443 69.3454 125.479 70.624 125.479Z" fill="#251E1C"/>
<path d="M214.674 48.958H-14.209V54.273H214.674V48.958Z" fill="#F1D7BD"/>
<path d="M20.601 41.376C20.54 43.183 19.973 44.438 18.724 45.47L18.602 45.357C19.588 44.239 19.956 43.14 19.956 41.229V39.352L19.913 38.871L20.663 39.22H22.476V38.173L22.424 37.692L22.896 37.744C23.227 37.79 23.463 37.894 23.463 38.017C23.463 38.103 23.393 38.146 23.114 38.234V39.22H24.964L25.341 38.819L25.837 39.186C26.012 39.305 26.091 39.403 26.091 39.471C26.091 39.584 25.978 39.63 25.61 39.673C25.086 40.004 25.043 40.031 24.52 40.38L24.388 40.267C24.651 39.881 24.685 39.829 24.93 39.428H23.114V41.167H23.944L24.354 40.8L24.789 41.14C24.964 41.272 25.034 41.367 25.034 41.455C25.034 41.55 24.921 41.602 24.605 41.639C24.204 42.414 23.901 42.867 23.42 43.4C24.222 44.003 25.138 44.31 26.562 44.447L26.553 44.612C26.176 44.762 26.057 44.894 25.907 45.252C24.501 44.805 23.812 44.447 23.053 43.767C22.137 44.606 21.084 45.093 19.749 45.304L19.694 45.139C20.986 44.796 21.92 44.257 22.695 43.4C22.165 42.763 21.939 42.38 21.492 41.376H20.604H20.601ZM20.601 41.168H22.475V39.429H20.601V41.168ZM21.795 41.376C22.205 42.145 22.456 42.503 22.989 43.042C23.381 42.537 23.635 42.108 23.984 41.376H21.795Z" fill="#251E1C"/>
<path d="M34.198 38.881L34.581 38.461L35.037 38.792C35.202 38.924 35.254 38.985 35.254 39.055C35.254 39.159 35.165 39.193 34.834 39.22C34.512 39.456 34.467 39.499 34.154 39.744L33.995 39.683C34.117 39.404 34.136 39.361 34.277 39.089H31.23C31.239 39.117 31.248 39.123 31.248 39.141C31.248 39.193 31.211 39.221 31.089 39.273V39.622L32.513 39.588L32.853 39.178L33.42 39.65V39.763L31.09 39.833V39.971C31.09 40.164 31.142 40.173 32.122 40.173C33.16 40.173 33.396 40.112 33.5 39.806L33.656 39.353L33.788 39.387L33.76 39.788V39.904C33.76 39.971 33.788 40.023 33.882 40.079C33.98 40.146 34.023 40.201 34.023 40.269C34.023 40.514 33.622 40.575 31.971 40.575C31.107 40.575 30.89 40.557 30.74 40.495C30.602 40.443 30.532 40.314 30.532 40.112V39.849L29.117 39.877L28.673 39.929L28.56 39.641L29.206 39.675L30.532 39.641V39.09H28.48V41.194C28.508 43.175 28.244 44.265 27.466 45.481L27.31 45.401C27.754 44.265 27.867 43.429 27.867 41.184V39.056L27.824 38.575L28.55 38.881H30.715V38.069L30.669 37.588L31.107 37.649C31.447 37.686 31.674 37.799 31.674 37.922C31.674 37.999 31.604 38.044 31.325 38.139V38.252H33.236L33.665 37.79L34.284 38.338V38.46H31.326V38.88L34.198 38.881ZM29.868 40.844H33.368L33.674 40.575L34.041 40.817C34.225 40.939 34.283 41.001 34.283 41.071C34.283 41.132 34.206 41.175 34.023 41.218V41.717L34.051 42.069C34.057 42.121 34.057 42.173 34.057 42.234C34.057 42.409 34.042 42.467 33.996 42.513C33.929 42.58 33.727 42.651 33.604 42.651C33.509 42.651 33.472 42.617 33.472 42.529V42.434H29.806V42.514C29.806 42.636 29.57 42.765 29.353 42.765C29.258 42.765 29.212 42.731 29.221 42.627V42.235L29.258 41.439V40.992L29.206 40.514L29.867 40.845L29.868 40.844ZM30.183 43.018H33.123L33.438 42.712L33.821 42.966C33.971 43.07 34.066 43.174 34.066 43.235C34.066 43.315 33.989 43.367 33.815 43.41V44.947C33.815 45.192 33.754 45.305 33.585 45.4C33.41 45.504 33.193 45.565 33.018 45.565C32.886 45.565 32.853 45.531 32.819 45.348C32.801 45.226 32.767 45.192 32.644 45.164L32.267 45.075L32.276 44.919L32.824 44.971C32.922 44.98 33.026 44.989 33.115 44.989C33.219 44.989 33.253 44.955 33.253 44.857V44.551H30.12V45.145C30.12 45.249 30.092 45.295 30.025 45.347C29.936 45.408 29.78 45.46 29.667 45.46C29.569 45.46 29.526 45.423 29.526 45.328V45.248L29.535 44.838L29.559 43.733V43.243L29.516 42.762L30.181 43.016L30.183 43.018ZM29.806 41.517H31.3V41.052H29.806V41.517ZM29.806 42.224H31.3V41.725H29.806V42.224ZM30.121 43.672H33.254V43.225H30.121V43.672ZM33.254 44.343V43.881H30.121V44.343H33.254ZM31.989 41.051C32.007 41.069 32.007 41.085 32.007 41.103C32.007 41.155 31.979 41.183 31.848 41.225V41.516H33.471V41.051H31.989ZM31.848 42.224H33.471V41.725H31.848V42.224Z" fill="#251E1C"/>
<path d="M39.609 40.102C39.6 40.093 39.557 40.022 39.416 39.787C39.312 39.603 39.232 39.499 39.033 39.257L39.128 39.144C39.802 39.413 40.001 39.579 40.001 39.839C40.001 39.952 39.949 40.075 39.845 40.145H41.174C41.401 39.658 41.434 39.578 41.609 39.116H37.567V40.231C37.567 42.923 37.252 44.178 36.229 45.532L36.082 45.452C36.771 44.013 36.927 43.085 36.955 40.231V38.051L36.912 37.57L37.638 37.919H42.51L42.865 37.604L43.199 37.834C43.435 38.005 43.521 38.103 43.521 38.18C43.521 38.287 43.441 38.348 43.233 38.4V38.725L43.261 39.117C43.267 39.169 43.267 39.221 43.267 39.273C43.267 39.466 43.261 39.518 43.215 39.561C43.129 39.641 42.946 39.702 42.786 39.702C42.642 39.702 42.624 39.674 42.624 39.509V39.117H41.993L42.168 39.23C42.281 39.3 42.361 39.395 42.361 39.447C42.361 39.517 42.281 39.545 42.003 39.569L41.455 40.145H42.668L42.999 39.823L43.324 40.059C43.56 40.23 43.655 40.328 43.655 40.405C43.655 40.503 43.566 40.564 43.367 40.616V41.017L43.391 41.89V42.135C43.391 42.276 43.367 42.328 43.278 42.38C43.174 42.432 43.033 42.475 42.911 42.475C42.773 42.475 42.755 42.451 42.755 42.282V42.126H38.572V42.328C38.572 42.518 38.388 42.634 38.085 42.634C37.953 42.634 37.92 42.606 37.929 42.493V42.432L37.935 42.04L37.963 40.984V40.329L37.911 39.848L38.634 40.145H39.648L39.614 40.102H39.609ZM37.566 38.908H42.622V38.127H37.566V38.908ZM42.368 42.528L42.693 42.755C42.935 42.93 43.021 43.028 43.021 43.104C43.021 43.202 42.935 43.263 42.736 43.315V43.909L42.76 44.782L42.769 45.027C42.769 45.165 42.741 45.217 42.647 45.272C42.552 45.33 42.402 45.367 42.28 45.367C42.142 45.367 42.124 45.339 42.124 45.174V45.009H39.129V45.202C39.129 45.392 38.945 45.514 38.639 45.514C38.517 45.514 38.483 45.48 38.483 45.376V45.306L38.489 44.886L38.517 43.787V43.061L38.465 42.58L39.191 42.843H42.039L42.37 42.528H42.368ZM38.568 41.018H40.307V40.353H38.568V41.018ZM38.568 41.918H40.307V41.226H38.568V41.918ZM39.128 43.725H42.123V43.051H39.128V43.725ZM39.128 44.8H42.123V43.933H39.128V44.8ZM41.06 40.354C41.075 40.372 41.075 40.388 41.075 40.406C41.075 40.458 41.041 40.486 40.919 40.528V41.018H42.75V40.353H41.06V40.354ZM40.919 41.919H42.75V41.227H40.919V41.919Z" fill="#251E1C"/>
<path d="M25.654 62.396L26.395 63.119V63.232H19.367L18.712 63.293L18.626 62.971L19.438 63.023H25.149L25.654 62.395V62.396ZM21.832 63.599C21.961 63.651 22.049 63.728 22.049 63.783C22.049 63.887 21.908 63.939 21.568 63.948C20.502 64.628 19.865 64.897 18.827 65.133L18.772 64.968C19.752 64.548 20.248 64.251 20.94 63.676L21.246 63.345L21.832 63.599ZM22.059 57.202L22.497 57.263C22.837 57.297 23.064 57.41 23.064 57.532C23.064 57.612 22.994 57.654 22.715 57.749V58.116H25.104L25.566 57.574L26.292 58.202V58.324H22.715V59.034H23.967L24.316 58.63L24.858 59.043C24.965 59.12 24.999 59.181 24.999 59.242C24.999 59.346 24.919 59.407 24.711 59.459V60.865L24.739 62.038C24.745 62.151 24.745 62.237 24.745 62.298C24.745 62.42 24.721 62.473 24.623 62.525C24.528 62.586 24.387 62.62 24.265 62.62C24.118 62.62 24.1 62.602 24.1 62.43V62.289H20.872V62.445C20.872 62.647 20.688 62.76 20.382 62.76C20.26 62.76 20.226 62.732 20.226 62.628V62.558L20.232 62.142L20.26 61.03V59.165L20.208 58.681L20.934 59.033H22.104V58.323H19.666L19.011 58.375L18.925 58.053L19.746 58.114H22.104V57.676L22.061 57.198L22.059 57.202ZM20.871 60.041H24.099V59.245H20.871V60.041ZM20.871 61.052H24.099V60.25H20.871V61.052ZM20.871 62.084H24.099V61.26H20.871V62.084ZM23.462 63.539C24.301 63.677 24.693 63.784 25.149 63.949C25.618 64.133 25.792 64.323 25.792 64.647C25.792 64.846 25.706 64.996 25.593 64.996C25.532 64.996 25.428 64.935 25.278 64.803C24.669 64.252 24.448 64.132 23.41 63.694L23.462 63.539Z" fill="#251E1C"/>
<path d="M29.329 60.99C29.268 62.797 28.701 64.052 27.452 65.084L27.33 64.971C28.316 63.853 28.684 62.754 28.684 60.843V58.966L28.641 58.485L29.391 58.834H31.204V57.787L31.152 57.306L31.624 57.358C31.955 57.404 32.191 57.508 32.191 57.631C32.191 57.717 32.121 57.76 31.842 57.848V58.834H33.692L34.069 58.433L34.565 58.8C34.74 58.919 34.819 59.017 34.819 59.085C34.819 59.198 34.706 59.244 34.338 59.287C33.814 59.618 33.771 59.645 33.248 59.994L33.116 59.881C33.379 59.495 33.413 59.443 33.658 59.042H31.842V60.781H32.672L33.082 60.414L33.517 60.754C33.692 60.886 33.762 60.981 33.762 61.069C33.762 61.164 33.649 61.216 33.333 61.253C32.932 62.028 32.629 62.481 32.148 63.014C32.95 63.617 33.866 63.924 35.29 64.061L35.281 64.226C34.904 64.376 34.785 64.508 34.635 64.866C33.229 64.419 32.54 64.061 31.781 63.381C30.865 64.22 29.812 64.707 28.477 64.918L28.422 64.753C29.714 64.41 30.648 63.871 31.423 63.014C30.893 62.377 30.667 61.994 30.22 60.99H29.332H29.329ZM29.329 60.782H31.203V59.043H29.329V60.782ZM30.523 60.99C30.933 61.759 31.184 62.117 31.717 62.656C32.109 62.151 32.363 61.722 32.712 60.99H30.523Z" fill="#251E1C"/>
<path d="M39.609 59.716C39.6 59.707 39.557 59.636 39.416 59.401C39.312 59.217 39.232 59.113 39.033 58.871L39.128 58.758C39.802 59.027 40.001 59.193 40.001 59.453C40.001 59.566 39.949 59.689 39.845 59.759H41.174C41.401 59.272 41.434 59.192 41.609 58.73H37.567V59.845C37.567 62.537 37.252 63.792 36.229 65.146L36.082 65.066C36.771 63.627 36.927 62.699 36.955 59.845V57.665L36.912 57.184L37.638 57.533H42.51L42.865 57.218L43.199 57.448C43.435 57.619 43.521 57.717 43.521 57.794C43.521 57.901 43.441 57.962 43.233 58.014V58.339L43.261 58.731C43.267 58.783 43.267 58.835 43.267 58.887C43.267 59.08 43.261 59.132 43.215 59.175C43.129 59.255 42.946 59.316 42.786 59.316C42.642 59.316 42.624 59.288 42.624 59.123V58.731H41.993L42.168 58.844C42.281 58.914 42.361 59.009 42.361 59.061C42.361 59.131 42.281 59.159 42.003 59.183L41.455 59.759H42.668L42.999 59.437L43.324 59.673C43.56 59.844 43.655 59.942 43.655 60.019C43.655 60.117 43.566 60.178 43.367 60.23V60.631L43.391 61.504V61.749C43.391 61.89 43.367 61.942 43.278 61.994C43.174 62.046 43.033 62.089 42.911 62.089C42.773 62.089 42.755 62.065 42.755 61.896V61.74H38.572V61.942C38.572 62.132 38.388 62.248 38.085 62.248C37.953 62.248 37.92 62.22 37.929 62.107V62.046L37.935 61.654L37.963 60.598V59.943L37.911 59.462L38.634 59.759H39.648L39.614 59.716H39.609ZM37.566 58.522H42.622V57.741H37.566V58.522ZM42.368 62.142L42.693 62.369C42.935 62.544 43.021 62.642 43.021 62.718C43.021 62.816 42.935 62.877 42.736 62.929V63.523L42.76 64.396L42.769 64.641C42.769 64.779 42.741 64.831 42.647 64.886C42.552 64.944 42.402 64.981 42.28 64.981C42.142 64.981 42.124 64.953 42.124 64.788V64.623H39.129V64.816C39.129 65.006 38.945 65.128 38.639 65.128C38.517 65.128 38.483 65.094 38.483 64.99V64.92L38.489 64.5L38.517 63.401V62.675L38.465 62.194L39.191 62.457H42.039L42.37 62.142H42.368ZM38.568 60.632H40.307V59.967H38.568V60.632ZM38.568 61.532H40.307V60.84H38.568V61.532ZM39.128 63.339H42.123V62.665H39.128V63.339ZM39.128 64.414H42.123V63.547H39.128V64.414ZM41.06 59.968C41.075 59.986 41.075 60.002 41.075 60.02C41.075 60.072 41.041 60.1 40.919 60.142V60.632H42.75V59.967L41.06 59.968ZM40.919 61.533H42.75V60.841H40.919V61.533Z" fill="#251E1C"/>
<path d="M70.903 51.672H70.284V41.865H49.24V41.249H70.903V51.672Z" fill="#251E1C"/>
<path d="M70.592 53.871C71.8705 53.871 72.907 52.8346 72.907 51.556C72.907 50.2775 71.8705 49.241 70.592 49.241C69.3134 49.241 68.277 50.2775 68.277 51.556C68.277 52.8346 69.3134 53.871 70.592 53.871Z" fill="#251E1C"/>
<path opacity="0.5" d="M111.859 98.782C124.166 98.782 134.143 88.8051 134.143 76.498C134.143 64.1909 124.166 54.214 111.859 54.214C99.5519 54.214 89.575 64.1909 89.575 76.498C89.575 88.8051 99.5519 98.782 111.859 98.782Z" fill="#DC950F"/>
<path opacity="0.4" d="M120.236 21.036H103.481L89.575 76.498H134.143L120.236 21.036Z" fill="url(#paint0_linear_0_3)"/>
</g>
<defs>
<linearGradient id="paint0_linear_0_3" x1="111.859" y1="71.724" x2="111.859" y2="-5.23399" gradientUnits="userSpaceOnUse">
<stop stop-color="white" stop-opacity="0"/>
<stop offset="0.022" stop-color="#F9EED9" stop-opacity="0.155"/>
<stop offset="0.055" stop-color="#F2D9AA" stop-opacity="0.352"/>
<stop offset="0.09" stop-color="#ECC780" stop-opacity="0.526"/>
<stop offset="0.128" stop-color="#E7B75D" stop-opacity="0.674"/>
<stop offset="0.168" stop-color="#E3AA40" stop-opacity="0.793"/>
<stop offset="0.212" stop-color="#E0A12A" stop-opacity="0.885"/>
<stop offset="0.262" stop-color="#DD9A1A" stop-opacity="0.95"/>
<stop offset="0.322" stop-color="#DC9611" stop-opacity="0.989"/>
<stop offset="0.422" stop-color="#DC950F"/>
</linearGradient>
</defs>
</svg>
