<?xml version="1.0" encoding="utf-8"?>
<!-- Generator: Adobe Illustrator 28.0.0, SVG Export Plug-In . SVG Version: 6.00 Build 0)  -->
<svg version="1.1" id="レイヤー_1" xmlns="http://www.w3.org/2000/svg" xmlns:xlink="http://www.w3.org/1999/xlink" x="0px"
	 y="0px" viewBox="0 0 151 168" style="enable-background:new 0 0 151 168;" xml:space="preserve">
<style type="text/css">
	.st0{fill:#F8ED00;}
	.st1{fill:#FFFFFF;}
	.st2{clip-path:url(#SVGID_00000111150311600947804960000004397912725284423814_);}
</style>
<circle class="st0" cx="75.423" cy="76" r="75.423"/>
<path d="M32.561,44.948c-0.102-0.193-0.261-0.402-0.476-0.629c-0.204-0.215-0.425-0.431-0.663-0.646
	c-0.238-0.204-0.47-0.374-0.697-0.51c0.714-0.465,1.337-0.986,1.87-1.564c0.544-0.589,0.992-1.281,1.343-2.074
	c0.363-0.805,0.635-1.751,0.816-2.839c0.181-1.099,0.272-2.38,0.272-3.842h-1.989c-0.272,0.601-0.572,1.201-0.901,1.802
	c-0.317,0.589-0.674,1.167-1.071,1.734c0.272,0.227,0.578,0.476,0.918,0.748c0.351,0.261,0.691,0.504,1.02,0.731
	c0.329,0.227,0.589,0.408,0.782,0.544c-0.249,0.204-0.516,0.465-0.799,0.782c-0.283,0.317-0.51,0.618-0.68,0.901
	c-0.227-0.17-0.482-0.368-0.765-0.595c-0.283-0.227-0.572-0.465-0.867-0.714v6.001h-2.38v-5.27c-0.215,0.193-0.442,0.38-0.68,0.561
	c-0.227,0.181-0.459,0.357-0.697,0.527c-0.193-0.306-0.453-0.623-0.782-0.952c-0.329-0.329-0.629-0.606-0.901-0.833
	c0.397-0.227,0.816-0.521,1.258-0.884c0.442-0.374,0.873-0.776,1.292-1.207c0.431-0.442,0.816-0.884,1.156-1.326
	c0.351-0.442,0.629-0.85,0.833-1.224H26.05v-2.21h2.244v-2.584h2.38v2.584h1.292l0.646,0.442V30.6h8.5v3.264
	c0,0.941-0.023,1.864-0.068,2.771c-0.034,0.895-0.079,1.717-0.136,2.465c-0.045,0.737-0.091,1.337-0.136,1.802
	c-0.079,1.009-0.283,1.796-0.612,2.363c-0.329,0.555-0.765,0.941-1.309,1.156c-0.544,0.215-1.19,0.323-1.938,0.323h-0.901
	c-0.011-0.238-0.045-0.521-0.102-0.85c-0.057-0.317-0.125-0.629-0.204-0.935c-0.068-0.317-0.147-0.578-0.238-0.782h1.292
	c0.317,0,0.572-0.04,0.765-0.119c0.193-0.079,0.346-0.232,0.459-0.459c0.113-0.238,0.204-0.589,0.272-1.054
	c0.045-0.283,0.096-0.759,0.153-1.428c0.057-0.669,0.102-1.456,0.136-2.363c0.045-0.918,0.068-1.881,0.068-2.89v-1.02h-1.156
	c-0.023,1.598-0.136,3.02-0.34,4.267c-0.204,1.235-0.51,2.329-0.918,3.281c-0.397,0.952-0.901,1.802-1.513,2.55
	C34.085,43.679,33.377,44.347,32.561,44.948z M33.054,37.485c-0.181-0.193-0.425-0.402-0.731-0.629
	c-0.295-0.238-0.555-0.414-0.782-0.527c0.181-0.193,0.368-0.425,0.561-0.697c0.193-0.272,0.374-0.55,0.544-0.833
	c0.17-0.283,0.3-0.538,0.391-0.765l1.734,1.105c-0.113,0.204-0.278,0.459-0.493,0.765c-0.215,0.295-0.436,0.589-0.663,0.884
	C33.4,37.071,33.213,37.304,33.054,37.485z M43.288,44.302V29.784H58.18v14.518H43.288z M45.77,42.177h9.928V31.943H45.77V42.177z
	 M47.113,40.562v-7.038h7.225v7.038H47.113z M49.595,38.437h2.278v-2.754h-2.278V38.437z M61.427,44.778
	c-0.147-0.193-0.346-0.397-0.595-0.612c-0.238-0.204-0.487-0.397-0.748-0.578c-0.261-0.181-0.51-0.323-0.748-0.425
	c0.589-0.465,1.139-1.037,1.649-1.717c0.521-0.691,0.975-1.428,1.36-2.21c0.385-0.782,0.663-1.547,0.833-2.295l2.533,0.833
	c-0.113,0.363-0.244,0.725-0.391,1.088c-0.147,0.351-0.3,0.703-0.459,1.054c0.374,0.703,0.912,1.241,1.615,1.615v-5.372h-3.57
	v-2.193h9.656v2.193h-3.468v1.632h4.607v2.227h-4.607v2.193c0.283,0.034,0.578,0.057,0.884,0.068
	c0.317,0.011,0.646,0.017,0.986,0.017c0.521,0,1.077-0.006,1.666-0.017c0.589-0.011,1.162-0.034,1.717-0.068
	c0.567-0.045,1.054-0.102,1.462-0.17c-0.068,0.17-0.142,0.419-0.221,0.748c-0.079,0.317-0.147,0.646-0.204,0.986
	c-0.057,0.351-0.091,0.646-0.102,0.884h-4.318c-1.315,0-2.431-0.085-3.349-0.255c-0.918-0.17-1.694-0.448-2.329-0.833
	c-0.623-0.374-1.167-0.873-1.632-1.496c-0.317,0.487-0.663,0.963-1.037,1.428C62.243,43.956,61.846,44.381,61.427,44.778z
	 M60.101,35.054V30.94h6.205v-1.802h2.737v1.802h6.307v3.995h-2.499v-1.972H62.583v2.091H60.101z M85.329,44.982
	c-0.215-0.227-0.51-0.487-0.884-0.782c-0.374-0.283-0.714-0.51-1.02-0.68c0.567-0.408,1.031-0.867,1.394-1.377
	c0.363-0.51,0.635-1.156,0.816-1.938c0.181-0.793,0.272-1.802,0.272-3.026v-7.31h6.154V42.84c0,0.714-0.181,1.23-0.544,1.547
	c-0.363,0.317-0.963,0.476-1.802,0.476h-1.156c-0.011-0.238-0.045-0.504-0.102-0.799c-0.057-0.295-0.125-0.584-0.204-0.867
	c-0.068-0.283-0.147-0.521-0.238-0.714h0.952c0.453,0,0.68-0.187,0.68-0.561v-2.686h-1.496c-0.147,1.349-0.453,2.482-0.918,3.4
	C86.768,43.554,86.134,44.336,85.329,44.982z M83.017,43.452c-0.159-0.249-0.357-0.521-0.595-0.816
	c-0.227-0.295-0.465-0.578-0.714-0.85c-0.238-0.272-0.465-0.493-0.68-0.663l1.19-1.02h-5.389v-1.904h1.173v-5.355h-1.088v-1.972
	h1.088v-1.428h2.414v1.428h1.513v-1.428h2.414v1.428h0.901v1.972h-0.901v5.355h1.02v1.904h-2.397
	c0.306,0.272,0.629,0.589,0.969,0.952c0.351,0.363,0.623,0.686,0.816,0.969c-0.147,0.079-0.334,0.204-0.561,0.374
	c-0.215,0.17-0.431,0.351-0.646,0.544C83.329,43.123,83.153,43.293,83.017,43.452z M78.002,44.795
	c-0.249-0.283-0.538-0.567-0.867-0.85c-0.317-0.272-0.618-0.482-0.901-0.629c0.181-0.125,0.397-0.306,0.646-0.544
	c0.249-0.238,0.504-0.504,0.765-0.799c0.272-0.306,0.521-0.612,0.748-0.918c0.238-0.317,0.425-0.601,0.561-0.85l1.972,1.139
	c-0.249,0.419-0.55,0.85-0.901,1.292c-0.34,0.442-0.691,0.85-1.054,1.224C78.62,44.245,78.297,44.557,78.002,44.795z M88.253,33.609
	h1.394v-1.683h-1.394V33.609z M88.253,37.247h1.394v-1.649h-1.394V37.247z M80.416,38.199h1.513v-0.731h-1.513V38.199z
	 M80.416,33.575h1.513v-0.731h-1.513V33.575z M80.416,35.87h1.513v-0.697h-1.513V35.87z M95.342,44.812
	c-0.272-0.159-0.601-0.317-0.986-0.476c-0.374-0.159-0.703-0.278-0.986-0.357c0.204-0.272,0.408-0.601,0.612-0.986
	c0.204-0.385,0.391-0.782,0.561-1.19c0.17-0.419,0.3-0.793,0.391-1.122h-0.561v-10.88h4.93v10.88h-0.357
	c0.136,0.442,0.317,0.884,0.544,1.326v-1.411h0.799v-4.097h3.06v-0.493h-3.774v-1.683h2.125v-0.544h-1.36v-1.513h1.36v-0.493h-2.057
	v-1.547h2.057v-1.003h2.091v1.003h1.173v-1.003h2.091v1.003h2.261v1.547h-2.261v0.493h1.666v1.513h-1.666v0.544h2.38v1.683h-4.012
	v0.493h3.077v4.097h1.122v1.632H108.5v0.867c0,0.601-0.159,1.031-0.476,1.292c-0.306,0.272-0.81,0.408-1.513,0.408h-1.105
	c-0.023-0.295-0.079-0.623-0.17-0.986c-0.091-0.351-0.187-0.652-0.289-0.901h0.833c0.193,0,0.334-0.028,0.425-0.085
	c0.091-0.057,0.136-0.187,0.136-0.391v-0.204h-3.893v2.516h-2.159v-0.986c-0.261,0.113-0.544,0.249-0.85,0.408
	c-0.306,0.159-0.572,0.312-0.799,0.459c-0.204-0.295-0.414-0.64-0.629-1.037c-0.215-0.397-0.414-0.805-0.595-1.224
	c-0.17-0.431-0.312-0.827-0.425-1.19l1.343-0.493h-2.992l1.564,0.476c-0.091,0.363-0.221,0.765-0.391,1.207
	c-0.159,0.442-0.34,0.878-0.544,1.309C95.767,44.104,95.557,44.483,95.342,44.812z M96.294,38.692h1.071v-1.156h-1.071V38.692z
	 M96.294,35.751h1.071v-1.088h-1.071V35.751z M96.294,32.878h1.071V31.79h-1.071V32.878z M103.791,34.323h1.173v-0.544h-1.173
	V34.323z M103.791,32.266h1.173v-0.493h-1.173V32.266z M105.423,40.596h0.918v-0.561h-0.918V40.596z M102.448,40.596h0.901v-0.561
	h-0.901V40.596z M105.423,38.556h0.918v-0.544h-0.918V38.556z M102.448,38.556h0.901v-0.544h-0.901V38.556z M100.289,43.384v-1.156
	h-0.697c0.113,0.215,0.227,0.425,0.34,0.629C100.057,43.05,100.176,43.225,100.289,43.384z M112.053,44.897
	c-0.204-0.385-0.453-0.765-0.748-1.139c-0.283-0.363-0.589-0.686-0.918-0.969c1.405-0.635,2.561-1.411,3.468-2.329
	c0.907-0.918,1.604-1.949,2.091-3.094c0.499-1.145,0.827-2.363,0.986-3.655l1.445,0.238c-0.045-0.329-0.079-0.657-0.102-0.986
	c-0.011-0.329-0.017-0.669-0.017-1.02h-3.825v-2.329h6.426c-0.136,1.394-0.147,2.72-0.034,3.978
	c0.125,1.258,0.414,2.442,0.867,3.553c0.453,1.099,1.116,2.125,1.989,3.077c0.884,0.941,2.023,1.791,3.417,2.55
	c-0.351,0.249-0.691,0.567-1.02,0.952c-0.329,0.397-0.623,0.788-0.884,1.173c-0.895-0.589-1.751-1.286-2.567-2.091
	c-0.805-0.805-1.53-1.723-2.176-2.754c-0.635-1.031-1.145-2.17-1.53-3.417c-0.34,1.19-0.833,2.306-1.479,3.349
	c-0.646,1.043-1.422,1.983-2.329,2.822C114.206,43.633,113.186,44.33,112.053,44.897z"/>
<circle cx="136.599" cy="87.51" r="0.776"/>
<circle cx="131.732" cy="87.51" r="0.776"/>
<circle cx="126.864" cy="87.51" r="0.776"/>
<circle cx="121.996" cy="87.51" r="0.776"/>
<circle cx="117.129" cy="87.51" r="0.776"/>
<circle cx="112.26" cy="87.51" r="0.776"/>
<circle cx="107.393" cy="87.51" r="0.776"/>
<circle cx="102.525" cy="87.51" r="0.776"/>
<circle cx="97.657" cy="87.51" r="0.776"/>
<circle cx="92.79" cy="87.51" r="0.776"/>
<circle cx="87.922" cy="87.51" r="0.776"/>
<circle cx="83.054" cy="87.51" r="0.776"/>
<circle cx="78.187" cy="87.51" r="0.776"/>
<circle cx="73.319" cy="87.51" r="0.776"/>
<circle cx="68.451" cy="87.51" r="0.776"/>
<circle cx="63.583" cy="87.51" r="0.776"/>
<circle cx="58.715" cy="87.51" r="0.776"/>
<circle cx="53.848" cy="87.51" r="0.776"/>
<circle cx="48.98" cy="87.51" r="0.776"/>
<circle cx="44.112" cy="87.51" r="0.776"/>
<circle cx="39.245" cy="87.51" r="0.776"/>
<circle cx="34.377" cy="87.51" r="0.776"/>
<circle cx="29.509" cy="87.51" r="0.776"/>
<circle cx="24.642" cy="87.51" r="0.776"/>
<circle cx="19.774" cy="87.51" r="0.776"/>
<circle cx="14.906" cy="87.51" r="0.776"/>
<path d="M32.423,128h90c11.046,0,20,8.954,20,20l0,0c0,11.046-8.954,20-20,20h-90c-11.046,0-20-8.954-20-20l0,0
	C12.423,136.954,21.378,128,32.423,128z"/>
<g>
	<path class="st1" d="M108.196,75.955v-7.728c-0.496,0.736-1.016,1.424-1.56,2.064c-0.528,0.64-1.048,1.192-1.56,1.656
		c-0.224-0.288-0.52-0.6-0.888-0.936c-0.368-0.336-0.712-0.592-1.032-0.768c0.544-0.448,1.104-1,1.68-1.656
		c0.592-0.672,1.152-1.384,1.68-2.136c0.528-0.768,0.976-1.512,1.344-2.232h-3.84v-2.472h4.176v-7.512h2.616v7.512h3.528v2.472
		h-3.528v0.24c0.288,0.352,0.656,0.768,1.104,1.248c0.464,0.464,0.936,0.912,1.416,1.344c0.48,0.432,0.904,0.784,1.272,1.056
		c0.8-0.096,1.744-0.232,2.832-0.408c1.088-0.192,2.176-0.392,3.264-0.6v-7.872c-0.176,0.144-0.384,0.336-0.624,0.576
		c-0.224,0.224-0.448,0.448-0.672,0.672c-0.208,0.224-0.368,0.416-0.48,0.576c-0.448-0.464-0.976-0.976-1.584-1.536
		c-0.608-0.56-1.208-1.016-1.8-1.368l1.752-1.824c0.56,0.352,1.152,0.808,1.776,1.368c0.64,0.544,1.184,1.04,1.632,1.488v-4.968
		h2.688v12.36c0.56-0.128,1.064-0.24,1.512-0.336c0.448-0.112,0.808-0.216,1.08-0.312l0.168,2.616
		c-0.352,0.096-0.76,0.2-1.224,0.312c-0.464,0.096-0.976,0.208-1.536,0.336v6.768H120.7v-6.192c-1.152,0.224-2.28,0.44-3.384,0.648
		c-1.104,0.192-2.024,0.344-2.76,0.456l-0.456-2.064c-0.208,0.24-0.416,0.488-0.624,0.744c-0.192,0.24-0.336,0.448-0.432,0.624
		c-0.352-0.304-0.72-0.656-1.104-1.056c-0.384-0.4-0.76-0.824-1.128-1.272v8.112H108.196z M118.3,66.235
		c-0.448-0.464-0.984-0.96-1.608-1.488c-0.624-0.544-1.24-0.992-1.848-1.344l1.656-1.872c0.384,0.24,0.792,0.528,1.224,0.864
		c0.432,0.32,0.848,0.656,1.248,1.008c0.416,0.336,0.776,0.648,1.08,0.936c-0.16,0.128-0.352,0.312-0.576,0.552
		c-0.224,0.224-0.448,0.464-0.672,0.72C118.596,65.851,118.428,66.059,118.3,66.235z M113.308,61.171
		c-0.256-0.144-0.608-0.312-1.056-0.504c-0.448-0.208-0.808-0.344-1.08-0.408c0.176-0.32,0.376-0.736,0.6-1.248
		c0.24-0.528,0.456-1.072,0.648-1.632c0.192-0.576,0.328-1.064,0.408-1.464l2.28,0.672c-0.064,0.288-0.176,0.648-0.336,1.08
		c-0.144,0.416-0.304,0.856-0.48,1.32c-0.176,0.448-0.352,0.872-0.528,1.272C113.588,60.643,113.436,60.947,113.308,61.171z
		 M105.484,61.123c-0.08-0.384-0.216-0.84-0.408-1.368c-0.176-0.544-0.376-1.08-0.6-1.608c-0.208-0.528-0.416-0.96-0.624-1.296
		l2.184-0.864c0.192,0.32,0.4,0.76,0.624,1.32c0.24,0.544,0.456,1.096,0.648,1.656c0.208,0.544,0.352,0.992,0.432,1.344
		c-0.32,0.064-0.72,0.184-1.2,0.36C106.06,60.843,105.708,60.995,105.484,61.123z"/>
	<path d="M123.388,54.211v12.36c0.56-0.128,1.064-0.24,1.512-0.336c0.448-0.112,0.808-0.216,1.08-0.312l0.168,2.616
		c-0.352,0.096-0.76,0.2-1.224,0.312c-0.464,0.096-0.976,0.208-1.536,0.336v6.768H120.7v-6.192c-1.152,0.224-2.28,0.44-3.384,0.648
		c-1.104,0.192-2.024,0.344-2.76,0.456l-0.456-2.064c-0.208,0.24-0.416,0.488-0.624,0.744c-0.192,0.24-0.336,0.448-0.432,0.624
		c-0.352-0.304-0.72-0.656-1.104-1.056c-0.384-0.4-0.76-0.824-1.128-1.272v8.112h-2.616v-7.728c-0.496,0.736-1.016,1.424-1.56,2.064
		c-0.528,0.64-1.048,1.192-1.56,1.656c-0.224-0.288-0.52-0.6-0.888-0.936c-0.368-0.336-0.712-0.592-1.032-0.768
		c0.544-0.448,1.104-1,1.68-1.656c0.592-0.672,1.152-1.384,1.68-2.136c0.528-0.768,0.976-1.512,1.344-2.232h-3.84v-2.472h4.176
		v-7.512h2.616v7.512h3.528v2.472h-3.528v0.24c0.288,0.352,0.656,0.768,1.104,1.248c0.464,0.464,0.936,0.912,1.416,1.344
		s0.904,0.784,1.272,1.056c0.8-0.096,1.744-0.232,2.832-0.408c1.088-0.192,2.176-0.392,3.264-0.6v-7.872
		c-0.176,0.144-0.384,0.336-0.624,0.576c-0.224,0.224-0.448,0.448-0.672,0.672c-0.208,0.224-0.368,0.416-0.48,0.576
		c-0.448-0.464-0.976-0.976-1.584-1.536c-0.608-0.56-1.208-1.016-1.8-1.368l1.752-1.824c0.56,0.352,1.152,0.808,1.776,1.368
		c0.64,0.544,1.184,1.04,1.632,1.488v-4.968H123.388 M112.828,55.915l2.28,0.672c-0.064,0.288-0.176,0.648-0.336,1.08
		c-0.144,0.416-0.304,0.856-0.48,1.32c-0.176,0.448-0.352,0.872-0.528,1.272c-0.176,0.384-0.328,0.688-0.456,0.912
		c-0.256-0.144-0.608-0.312-1.056-0.504c-0.448-0.208-0.808-0.344-1.08-0.408c0.176-0.32,0.376-0.736,0.6-1.248
		c0.24-0.528,0.456-1.072,0.648-1.632C112.612,56.803,112.748,56.315,112.828,55.915 M106.036,55.987
		c0.192,0.32,0.4,0.76,0.624,1.32c0.24,0.544,0.456,1.096,0.648,1.656c0.208,0.544,0.352,0.992,0.432,1.344
		c-0.32,0.064-0.72,0.184-1.2,0.36c-0.48,0.176-0.832,0.328-1.056,0.456c-0.08-0.384-0.216-0.84-0.408-1.368
		c-0.176-0.544-0.376-1.08-0.6-1.608c-0.208-0.528-0.416-0.96-0.624-1.296L106.036,55.987 M116.5,61.531
		c0.384,0.24,0.792,0.528,1.224,0.864c0.432,0.32,0.848,0.656,1.248,1.008c0.416,0.336,0.776,0.648,1.08,0.936
		c-0.16,0.128-0.352,0.312-0.576,0.552c-0.224,0.224-0.448,0.464-0.672,0.72c-0.208,0.24-0.376,0.448-0.504,0.624
		c-0.448-0.464-0.984-0.96-1.608-1.488c-0.624-0.544-1.24-0.992-1.848-1.344L116.5,61.531 M123.388,52.711H120.7
		c-0.828,0-1.5,0.672-1.5,1.5v1.63c-0.376-0.296-0.749-0.561-1.11-0.788c-0.246-0.155-0.523-0.23-0.798-0.23
		c-0.398,0-0.791,0.158-1.082,0.461l-0.143,0.149c-0.153-0.127-0.333-0.225-0.535-0.285l-2.28-0.672
		c-0.139-0.041-0.282-0.061-0.424-0.061c-0.176,0-0.35,0.031-0.516,0.092v-0.272c0-0.828-0.672-1.5-1.5-1.5h-2.616
		c-0.828,0-1.5,0.672-1.5,1.5v0.405c-0.205-0.1-0.431-0.153-0.66-0.153c-0.184,0-0.371,0.034-0.551,0.105l-2.184,0.864
		c-0.413,0.163-0.732,0.501-0.872,0.923c-0.14,0.422-0.085,0.884,0.149,1.261c0.16,0.258,0.329,0.614,0.504,1.056
		c0.221,0.521,0.407,1.02,0.568,1.52c0.006,0.017,0.011,0.034,0.017,0.051c0.002,0.007,0.005,0.013,0.007,0.02
		c-0.661,0.156-1.153,0.751-1.153,1.46v2.472c0,0.828,0.672,1.5,1.5,1.5h1.177c-0.463,0.65-0.965,1.284-1.486,1.876
		c-0.522,0.594-1.029,1.095-1.508,1.49c-0.384,0.316-0.586,0.802-0.54,1.297c0.046,0.495,0.335,0.935,0.771,1.175
		c0.215,0.118,0.465,0.307,0.744,0.561c0.304,0.277,0.544,0.529,0.715,0.749c0.256,0.329,0.638,0.537,1.054,0.573
		c0.043,0.004,0.087,0.006,0.13,0.006c0.371,0,0.73-0.137,1.007-0.389c0.203-0.184,0.407-0.381,0.613-0.59v3.486
		c0,0.828,0.672,1.5,1.5,1.5h2.616c0.828,0,1.5-0.672,1.5-1.5v-4.475c0.223,0.125,0.476,0.191,0.732,0.191
		c0.078,0,0.156-0.006,0.234-0.018c0.269,0.438,0.751,0.715,1.277,0.715c0.075,0,0.151-0.006,0.227-0.017
		c0.744-0.113,1.675-0.267,2.791-0.461c0.541-0.102,1.082-0.205,1.627-0.309v4.375c0,0.828,0.672,1.5,1.5,1.5h2.688
		c0.828,0,1.5-0.672,1.5-1.5v-5.564c0.116-0.025,0.229-0.049,0.34-0.071c0.528-0.127,0.95-0.234,1.315-0.334
		c0.687-0.187,1.148-0.832,1.102-1.543l-0.168-2.616c-0.03-0.469-0.278-0.897-0.67-1.156c-0.248-0.164-0.536-0.248-0.827-0.248
		c-0.168,0-0.337,0.028-0.499,0.086c-0.155,0.055-0.354,0.115-0.593,0.18V54.211C124.888,53.383,124.216,52.711,123.388,52.711
		L123.388,52.711z M115.266,60.567c0.087-0.204,0.173-0.41,0.259-0.621c0.102,0.077,0.204,0.158,0.306,0.243
		c-0.168,0.084-0.323,0.201-0.454,0.349l-0.062,0.07C115.299,60.593,115.282,60.58,115.266,60.567L115.266,60.567z M114.097,65.719
		h0.243c0.317,0,0.611-0.098,0.853-0.266c0.17,0.133,0.341,0.275,0.513,0.425c0.197,0.167,0.384,0.329,0.56,0.487
		c-0.437,0.066-0.848,0.125-1.231,0.176c-0.215-0.177-0.449-0.379-0.7-0.604C114.256,65.865,114.176,65.792,114.097,65.719
		L114.097,65.719z"/>
</g>
<g>
	<path class="st1" d="M96.892,76.123c-0.224-0.416-0.528-0.928-0.912-1.536c-0.368-0.608-0.768-1.216-1.2-1.824
		c-0.416-0.608-0.816-1.12-1.2-1.536l1.92-1.392H78.46v-2.376h2.64v-3.24h-3.528v-2.4H81.1v-2.472
		c-0.336,0.368-0.664,0.712-0.984,1.032c-0.32,0.32-0.624,0.592-0.912,0.816c-0.256-0.272-0.6-0.576-1.032-0.912
		c-0.416-0.336-0.792-0.584-1.128-0.744c0.432-0.336,0.88-0.744,1.344-1.224c0.464-0.496,0.912-1.016,1.344-1.56
		c0.448-0.56,0.84-1.104,1.176-1.632s0.584-0.992,0.744-1.392l2.712,0.84c-0.112,0.256-0.256,0.536-0.432,0.84
		c-0.16,0.288-0.344,0.592-0.552,0.912h14.832v2.376h-2.28v3.12h3.456v2.4h-3.456v3.24h2.736v2.376h-2.976
		c0.416,0.432,0.848,0.936,1.296,1.512c0.464,0.576,0.904,1.152,1.32,1.728c0.416,0.576,0.752,1.088,1.008,1.536
		c-0.384,0.16-0.816,0.392-1.296,0.696C97.54,75.627,97.164,75.899,96.892,76.123z M79.804,76.195
		c-0.288-0.272-0.664-0.552-1.128-0.84c-0.464-0.272-0.88-0.472-1.248-0.6c0.4-0.352,0.816-0.792,1.248-1.32s0.84-1.088,1.224-1.68
		c0.4-0.592,0.72-1.16,0.96-1.704l2.472,1.176c-0.288,0.592-0.632,1.2-1.032,1.824c-0.4,0.608-0.816,1.184-1.248,1.728
		C80.62,75.323,80.204,75.795,79.804,76.195z M90.268,75.931c-0.064-0.464-0.168-1.008-0.312-1.632
		c-0.128-0.608-0.272-1.208-0.432-1.8c-0.144-0.608-0.296-1.112-0.456-1.512l2.568-0.696c0.16,0.368,0.328,0.856,0.504,1.464
		c0.176,0.592,0.336,1.2,0.48,1.824c0.16,0.624,0.28,1.184,0.36,1.68c-0.352,0.048-0.808,0.136-1.368,0.264
		C91.068,75.651,90.62,75.787,90.268,75.931z M85.252,76.051c-0.032-0.448-0.096-0.984-0.192-1.608
		c-0.096-0.608-0.2-1.208-0.312-1.8c-0.112-0.608-0.224-1.112-0.336-1.512l2.592-0.528c0.144,0.4,0.28,0.896,0.408,1.488
		c0.144,0.592,0.264,1.2,0.36,1.824c0.112,0.624,0.184,1.168,0.216,1.632c-0.224,0.016-0.504,0.048-0.84,0.096
		c-0.336,0.064-0.68,0.128-1.032,0.192C85.78,75.899,85.492,75.971,85.252,76.051z M83.644,67.459h1.536v-3.24h-1.536V67.459z
		 M91.828,67.459h1.536v-3.24h-1.536V67.459z M87.748,67.459h1.512v-3.24h-1.512V67.459z M83.644,61.819h1.536v-3.12h-1.536V61.819z
		 M91.828,61.819h1.536v-3.12h-1.536V61.819z M87.748,61.819h1.512v-3.12h-1.512V61.819z"/>
	<path d="M81.652,53.731l2.712,0.84c-0.112,0.256-0.256,0.536-0.432,0.84c-0.16,0.288-0.344,0.592-0.552,0.912h14.832v2.376h-2.28
		v3.12h3.456v2.4h-3.456v3.24h2.736v2.376h-2.976c0.416,0.432,0.848,0.936,1.296,1.512c0.464,0.576,0.904,1.152,1.32,1.728
		c0.416,0.576,0.752,1.088,1.008,1.536c-0.384,0.16-0.816,0.392-1.296,0.696c-0.48,0.32-0.856,0.592-1.128,0.816
		c-0.224-0.416-0.528-0.928-0.912-1.536c-0.368-0.608-0.768-1.216-1.2-1.824c-0.416-0.608-0.816-1.12-1.2-1.536l1.92-1.392H78.46
		v-2.376h2.64v-3.24h-3.528v-2.4H81.1v-2.472c-0.336,0.368-0.664,0.712-0.984,1.032c-0.32,0.32-0.624,0.592-0.912,0.816
		c-0.256-0.272-0.6-0.576-1.032-0.912c-0.416-0.336-0.792-0.584-1.128-0.744c0.432-0.336,0.88-0.744,1.344-1.224
		c0.464-0.496,0.912-1.016,1.344-1.56c0.448-0.56,0.84-1.104,1.176-1.632S81.492,54.131,81.652,53.731 M91.828,61.819h1.536v-3.12
		h-1.536V61.819 M87.748,61.819h1.512v-3.12h-1.512V61.819 M83.644,61.819h1.536v-3.12h-1.536V61.819 M91.828,67.459h1.536v-3.24
		h-1.536V67.459 M87.748,67.459h1.512v-3.24h-1.512V67.459 M83.644,67.459h1.536v-3.24h-1.536V67.459 M80.86,70.051l2.472,1.176
		c-0.288,0.592-0.632,1.2-1.032,1.824c-0.4,0.608-0.816,1.184-1.248,1.728c-0.432,0.544-0.848,1.016-1.248,1.416
		c-0.288-0.272-0.664-0.552-1.128-0.84c-0.464-0.272-0.88-0.472-1.248-0.6c0.4-0.352,0.816-0.792,1.248-1.32s0.84-1.088,1.224-1.68
		C80.3,71.163,80.62,70.595,80.86,70.051 M91.636,70.291c0.16,0.368,0.328,0.856,0.504,1.464c0.176,0.592,0.336,1.2,0.48,1.824
		c0.16,0.624,0.28,1.184,0.36,1.68c-0.352,0.048-0.808,0.136-1.368,0.264c-0.544,0.128-0.992,0.264-1.344,0.408
		c-0.064-0.464-0.168-1.008-0.312-1.632c-0.128-0.608-0.272-1.208-0.432-1.8c-0.144-0.608-0.296-1.112-0.456-1.512L91.636,70.291
		 M87.004,70.603c0.144,0.4,0.28,0.896,0.408,1.488c0.144,0.592,0.264,1.2,0.36,1.824c0.112,0.624,0.184,1.168,0.216,1.632
		c-0.224,0.016-0.504,0.048-0.84,0.096c-0.336,0.064-0.68,0.128-1.032,0.192c-0.336,0.064-0.624,0.136-0.864,0.216
		c-0.032-0.448-0.096-0.984-0.192-1.608c-0.096-0.608-0.2-1.208-0.312-1.8c-0.112-0.608-0.224-1.112-0.336-1.512L87.004,70.603
		 M81.652,52.231c-0.599,0-1.159,0.361-1.393,0.943c-0.125,0.312-0.332,0.697-0.617,1.144c-0.306,0.48-0.67,0.985-1.082,1.5
		c-0.408,0.514-0.834,1.008-1.268,1.472c-0.396,0.409-0.795,0.774-1.169,1.065c-0.411,0.319-0.627,0.829-0.57,1.346
		c0.056,0.515,0.374,0.965,0.841,1.19c-0.201,0.255-0.322,0.578-0.322,0.928v2.4c0,0.828,0.672,1.5,1.5,1.5H79.6v0.24h-1.14
		c-0.828,0-1.5,0.672-1.5,1.5v2.376c0,0.801,0.628,1.455,1.418,1.498c-0.28,0.408-0.567,0.79-0.863,1.152
		c-0.378,0.462-0.741,0.847-1.078,1.144c-0.4,0.352-0.584,0.891-0.481,1.414c0.103,0.523,0.475,0.953,0.979,1.128
		c0.274,0.095,0.605,0.256,0.982,0.477c0.344,0.214,0.643,0.435,0.857,0.636c0.289,0.273,0.66,0.409,1.03,0.409
		c0.384,0,0.768-0.147,1.061-0.439c0.438-0.438,0.897-0.958,1.362-1.544c0.427-0.538,0.844-1.112,1.241-1.708
		c0.038,0.224,0.075,0.448,0.11,0.673c0.088,0.575,0.148,1.075,0.177,1.481c0.033,0.462,0.278,0.883,0.663,1.141
		c0.25,0.167,0.54,0.253,0.833,0.253c0.159,0,0.319-0.025,0.474-0.077c0.176-0.059,0.401-0.114,0.67-0.165
		c0.332-0.06,0.668-0.123,0.997-0.185c0.279-0.039,0.513-0.066,0.701-0.08c0.336-0.024,0.638-0.157,0.874-0.362
		c0.13,0.225,0.319,0.416,0.55,0.549c0.231,0.133,0.489,0.2,0.749,0.2c0.192,0,0.385-0.037,0.568-0.112
		c0.278-0.114,0.655-0.227,1.12-0.336c0.505-0.115,0.921-0.196,1.227-0.238c0.4-0.055,0.762-0.269,1.003-0.593
		c0.241-0.325,0.34-0.733,0.276-1.132c-0.003-0.017-0.006-0.035-0.009-0.052c0.083,0.132,0.165,0.264,0.244,0.396
		c0.379,0.6,0.668,1.087,0.875,1.47c0.213,0.395,0.591,0.674,1.032,0.761c0.096,0.019,0.193,0.028,0.289,0.028
		c0.345,0,0.683-0.119,0.954-0.342c0.232-0.191,0.571-0.435,1.006-0.726c0.377-0.238,0.737-0.433,1.041-0.559
		c0.397-0.165,0.704-0.494,0.843-0.901s0.096-0.854-0.117-1.228c-0.281-0.492-0.649-1.054-1.094-1.67
		c-0.21-0.291-0.427-0.583-0.65-0.876c0.731-0.1,1.294-0.727,1.294-1.486v-2.376c0-0.828-0.672-1.5-1.5-1.5h-1.236v-0.24h1.956
		c0.828,0,1.5-0.672,1.5-1.5v-2.4c0-0.828-0.672-1.5-1.5-1.5h-1.956v-0.12h0.78c0.828,0,1.5-0.672,1.5-1.5v-2.376
		c0-0.828-0.672-1.5-1.5-1.5H85.843c0.05-0.294,0.012-0.6-0.115-0.876c-0.178-0.388-0.512-0.683-0.92-0.809l-2.712-0.84
		C81.949,52.253,81.799,52.231,81.652,52.231L81.652,52.231z"/>
</g>
<g>
	<path class="st1" d="M55.876,75.955v-7.728c-0.496,0.736-1.016,1.424-1.56,2.064c-0.528,0.64-1.048,1.192-1.56,1.656
		c-0.224-0.288-0.52-0.6-0.888-0.936s-0.712-0.592-1.032-0.768c0.544-0.448,1.104-1,1.68-1.656c0.592-0.672,1.152-1.384,1.68-2.136
		c0.528-0.768,0.976-1.512,1.344-2.232H51.7v-2.472h4.176v-7.512h2.616v7.512h3.528v2.472h-3.528v0.24
		c0.288,0.352,0.656,0.768,1.104,1.248c0.464,0.464,0.936,0.912,1.416,1.344c0.48,0.432,0.904,0.784,1.272,1.056
		c0.8-0.096,1.744-0.232,2.832-0.408c1.088-0.192,2.176-0.392,3.264-0.6v-7.872c-0.176,0.144-0.384,0.336-0.624,0.576
		c-0.224,0.224-0.448,0.448-0.672,0.672c-0.208,0.224-0.368,0.416-0.48,0.576c-0.448-0.464-0.976-0.976-1.584-1.536
		s-1.208-1.016-1.8-1.368l1.752-1.824c0.56,0.352,1.152,0.808,1.776,1.368c0.64,0.544,1.184,1.04,1.632,1.488v-4.968h2.688v12.36
		c0.56-0.128,1.064-0.24,1.512-0.336c0.448-0.112,0.808-0.216,1.08-0.312l0.168,2.616c-0.352,0.096-0.76,0.2-1.224,0.312
		c-0.464,0.096-0.976,0.208-1.536,0.336v6.768H68.38v-6.192c-1.152,0.224-2.28,0.44-3.384,0.648
		c-1.104,0.192-2.024,0.344-2.76,0.456l-0.456-2.064c-0.208,0.24-0.416,0.488-0.624,0.744c-0.192,0.24-0.336,0.448-0.432,0.624
		c-0.352-0.304-0.72-0.656-1.104-1.056s-0.76-0.824-1.128-1.272v8.112H55.876z M65.98,66.235c-0.448-0.464-0.984-0.96-1.608-1.488
		c-0.624-0.544-1.24-0.992-1.848-1.344l1.656-1.872c0.384,0.24,0.792,0.528,1.224,0.864c0.432,0.32,0.848,0.656,1.248,1.008
		c0.416,0.336,0.776,0.648,1.08,0.936c-0.16,0.128-0.352,0.312-0.576,0.552c-0.224,0.224-0.448,0.464-0.672,0.72
		C66.276,65.851,66.108,66.059,65.98,66.235z M60.988,61.171c-0.256-0.144-0.608-0.312-1.056-0.504
		c-0.448-0.208-0.808-0.344-1.08-0.408c0.176-0.32,0.376-0.736,0.6-1.248c0.24-0.528,0.456-1.072,0.648-1.632
		c0.192-0.576,0.328-1.064,0.408-1.464l2.28,0.672c-0.064,0.288-0.176,0.648-0.336,1.08c-0.144,0.416-0.304,0.856-0.48,1.32
		c-0.176,0.448-0.352,0.872-0.528,1.272C61.268,60.643,61.116,60.947,60.988,61.171z M53.164,61.123
		c-0.08-0.384-0.216-0.84-0.408-1.368c-0.176-0.544-0.376-1.08-0.6-1.608c-0.208-0.528-0.416-0.96-0.624-1.296l2.184-0.864
		c0.192,0.32,0.4,0.76,0.624,1.32c0.24,0.544,0.456,1.096,0.648,1.656c0.208,0.544,0.352,0.992,0.432,1.344
		c-0.32,0.064-0.72,0.184-1.2,0.36C53.74,60.843,53.388,60.995,53.164,61.123z"/>
	<path d="M71.068,54.211v12.36c0.56-0.128,1.064-0.24,1.512-0.336c0.448-0.112,0.808-0.216,1.08-0.312l0.168,2.616
		c-0.352,0.096-0.76,0.2-1.224,0.312c-0.464,0.096-0.976,0.208-1.536,0.336v6.768H68.38v-6.192c-1.152,0.224-2.28,0.44-3.384,0.648
		c-1.104,0.192-2.024,0.344-2.76,0.456l-0.456-2.064c-0.208,0.24-0.416,0.488-0.624,0.744c-0.192,0.24-0.336,0.448-0.432,0.624
		c-0.352-0.304-0.72-0.656-1.104-1.056c-0.384-0.4-0.76-0.824-1.128-1.272v8.112h-2.616v-7.728c-0.496,0.736-1.016,1.424-1.56,2.064
		c-0.528,0.64-1.048,1.192-1.56,1.656c-0.224-0.288-0.52-0.6-0.888-0.936s-0.712-0.592-1.032-0.768c0.544-0.448,1.104-1,1.68-1.656
		c0.592-0.672,1.152-1.384,1.68-2.136c0.528-0.768,0.976-1.512,1.344-2.232H51.7v-2.472h4.176v-7.512h2.616v7.512h3.528v2.472
		h-3.528v0.24c0.288,0.352,0.656,0.768,1.104,1.248c0.464,0.464,0.936,0.912,1.416,1.344s0.904,0.784,1.272,1.056
		c0.8-0.096,1.744-0.232,2.832-0.408c1.088-0.192,2.176-0.392,3.264-0.6v-7.872c-0.176,0.144-0.384,0.336-0.624,0.576
		c-0.224,0.224-0.448,0.448-0.672,0.672c-0.208,0.224-0.368,0.416-0.48,0.576c-0.448-0.464-0.976-0.976-1.584-1.536
		c-0.608-0.56-1.208-1.016-1.8-1.368l1.752-1.824c0.56,0.352,1.152,0.808,1.776,1.368c0.64,0.544,1.184,1.04,1.632,1.488v-4.968
		H71.068 M60.508,55.915l2.28,0.672c-0.064,0.288-0.176,0.648-0.336,1.08c-0.144,0.416-0.304,0.856-0.48,1.32
		c-0.176,0.448-0.352,0.872-0.528,1.272c-0.176,0.384-0.328,0.688-0.456,0.912c-0.256-0.144-0.608-0.312-1.056-0.504
		c-0.448-0.208-0.808-0.344-1.08-0.408c0.176-0.32,0.376-0.736,0.6-1.248c0.24-0.528,0.456-1.072,0.648-1.632
		C60.292,56.803,60.428,56.315,60.508,55.915 M53.716,55.987c0.192,0.32,0.4,0.76,0.624,1.32c0.24,0.544,0.456,1.096,0.648,1.656
		c0.208,0.544,0.352,0.992,0.432,1.344c-0.32,0.064-0.72,0.184-1.2,0.36c-0.48,0.176-0.832,0.328-1.056,0.456
		c-0.08-0.384-0.216-0.84-0.408-1.368c-0.176-0.544-0.376-1.08-0.6-1.608c-0.208-0.528-0.416-0.96-0.624-1.296L53.716,55.987
		 M64.18,61.531c0.384,0.24,0.792,0.528,1.224,0.864c0.432,0.32,0.848,0.656,1.248,1.008c0.416,0.336,0.776,0.648,1.08,0.936
		c-0.16,0.128-0.352,0.312-0.576,0.552c-0.224,0.224-0.448,0.464-0.672,0.72c-0.208,0.24-0.376,0.448-0.504,0.624
		c-0.448-0.464-0.984-0.96-1.608-1.488c-0.624-0.544-1.24-0.992-1.848-1.344L64.18,61.531 M71.068,52.711H68.38
		c-0.828,0-1.5,0.672-1.5,1.5v1.63c-0.376-0.296-0.749-0.561-1.11-0.788c-0.246-0.155-0.523-0.23-0.798-0.23
		c-0.398,0-0.791,0.158-1.082,0.461l-0.143,0.149c-0.153-0.127-0.333-0.225-0.535-0.285l-2.28-0.672
		c-0.139-0.041-0.282-0.061-0.424-0.061c-0.176,0-0.35,0.031-0.516,0.092v-0.272c0-0.828-0.672-1.5-1.5-1.5h-2.616
		c-0.828,0-1.5,0.672-1.5,1.5v0.405c-0.205-0.1-0.431-0.153-0.66-0.153c-0.184,0-0.371,0.034-0.551,0.105l-2.184,0.864
		c-0.413,0.163-0.732,0.501-0.872,0.923c-0.14,0.422-0.085,0.884,0.149,1.261c0.16,0.258,0.33,0.614,0.504,1.056
		c0.221,0.521,0.407,1.02,0.568,1.52c0.006,0.017,0.011,0.034,0.017,0.051c0.002,0.007,0.005,0.013,0.007,0.02
		c-0.661,0.156-1.153,0.751-1.153,1.46v2.472c0,0.828,0.672,1.5,1.5,1.5h1.177c-0.463,0.65-0.965,1.284-1.486,1.876
		c-0.522,0.594-1.029,1.095-1.508,1.49c-0.384,0.316-0.586,0.802-0.54,1.297c0.046,0.495,0.335,0.935,0.771,1.175
		c0.215,0.118,0.465,0.307,0.744,0.561c0.304,0.277,0.544,0.529,0.715,0.749c0.256,0.329,0.638,0.537,1.054,0.573
		c0.043,0.004,0.087,0.006,0.13,0.006c0.371,0,0.73-0.137,1.007-0.389c0.203-0.184,0.407-0.381,0.613-0.59v3.486
		c0,0.828,0.672,1.5,1.5,1.5h2.616c0.828,0,1.5-0.672,1.5-1.5v-4.475c0.223,0.125,0.476,0.191,0.732,0.191
		c0.078,0,0.156-0.006,0.234-0.018c0.269,0.438,0.751,0.715,1.277,0.715c0.075,0,0.151-0.006,0.227-0.017
		c0.744-0.113,1.675-0.267,2.791-0.461c0.541-0.102,1.082-0.205,1.627-0.309v4.375c0,0.828,0.672,1.5,1.5,1.5h2.688
		c0.828,0,1.5-0.672,1.5-1.5v-5.564c0.116-0.025,0.229-0.049,0.34-0.071c0.528-0.127,0.95-0.234,1.315-0.334
		c0.687-0.187,1.148-0.832,1.102-1.543l-0.168-2.616c-0.03-0.469-0.278-0.897-0.67-1.156c-0.248-0.164-0.536-0.248-0.827-0.248
		c-0.168,0-0.337,0.028-0.499,0.086c-0.155,0.055-0.354,0.115-0.593,0.18V54.211C72.568,53.383,71.897,52.711,71.068,52.711
		L71.068,52.711z M62.946,60.567c0.087-0.204,0.173-0.41,0.259-0.621c0.102,0.077,0.204,0.158,0.306,0.243
		c-0.168,0.084-0.323,0.201-0.454,0.349l-0.062,0.07C62.979,60.593,62.963,60.58,62.946,60.567L62.946,60.567z M61.777,65.719h0.243
		c0.317,0,0.611-0.098,0.853-0.266c0.17,0.133,0.341,0.275,0.513,0.425c0.197,0.167,0.384,0.329,0.56,0.487
		c-0.437,0.066-0.848,0.125-1.231,0.176c-0.215-0.177-0.449-0.379-0.7-0.604C61.936,65.865,61.857,65.792,61.777,65.719
		L61.777,65.719z"/>
</g>
<g>
	<path class="st1" d="M45.125,72.595c-1.216-0.496-2.32-1.176-3.312-2.04s-1.792-1.848-2.4-2.952
		c-0.608,1.008-1.416,1.92-2.424,2.736c-1.008,0.816-2.184,1.528-3.528,2.136c-0.112-0.224-0.272-0.488-0.48-0.792
		c-0.208-0.304-0.432-0.592-0.672-0.864c-0.224-0.288-0.424-0.496-0.6-0.624c2.656-0.992,4.456-2.488,5.4-4.488h-5.04v-2.52h5.664
		c0-0.048,0-0.096,0-0.144c0.016-0.048,0.024-0.096,0.024-0.144v-1.848h-4.968v-2.448h2.952c-0.272-0.608-0.592-1.216-0.96-1.824
		c-0.368-0.624-0.728-1.144-1.08-1.56l2.328-1.176c0.416,0.512,0.832,1.112,1.248,1.8c0.416,0.672,0.752,1.264,1.008,1.776
		c-0.288,0.144-0.608,0.304-0.96,0.48c-0.352,0.16-0.688,0.328-1.008,0.504h3.36c0.24-0.432,0.496-0.944,0.768-1.536
		c0.272-0.608,0.52-1.192,0.744-1.752c0.224-0.576,0.384-1.032,0.48-1.368l2.688,0.744c-0.192,0.528-0.464,1.16-0.816,1.896
		c-0.336,0.736-0.664,1.408-0.984,2.016h3.24v2.448h-5.088v2.136h6.096v2.52h-5.52c0.464,0.976,1.168,1.856,2.112,2.64
		c0.944,0.768,2.096,1.4,3.456,1.896c-0.176,0.16-0.384,0.384-0.624,0.672c-0.224,0.288-0.44,0.584-0.648,0.888
		C45.389,72.107,45.236,72.371,45.125,72.595z M38.525,75.691c-1.696,0-3.104-0.088-4.224-0.264c-1.12-0.16-2.04-0.416-2.76-0.768
		c-0.72-0.336-1.336-0.76-1.848-1.272c-0.288,0.208-0.664,0.456-1.128,0.744c-0.448,0.272-0.912,0.544-1.392,0.816
		c-0.464,0.288-0.872,0.528-1.224,0.72l-1.176-2.832c0.32-0.112,0.704-0.264,1.152-0.456c0.464-0.192,0.912-0.384,1.344-0.576
		c0.432-0.192,0.752-0.344,0.96-0.456v-5.976h-2.856v-2.496h5.592v8.112c0.304,0.768,1.032,1.312,2.184,1.632
		c1.168,0.32,2.96,0.48,5.376,0.48c2.048,0,3.808-0.032,5.28-0.096c1.472-0.08,2.664-0.184,3.576-0.312
		c-0.08,0.176-0.168,0.456-0.264,0.84c-0.096,0.368-0.176,0.752-0.24,1.152c-0.064,0.4-0.104,0.72-0.12,0.96
		c-0.448,0-1.032,0-1.752,0c-0.72,0.016-1.488,0.024-2.304,0.024c-0.8,0.016-1.568,0.024-2.304,0.024S39.036,75.691,38.525,75.691z
		 M30.004,60.019c-0.288-0.352-0.672-0.752-1.152-1.2c-0.48-0.448-0.984-0.888-1.512-1.32c-0.528-0.448-1.016-0.808-1.464-1.08
		l1.8-1.848c0.4,0.224,0.872,0.552,1.416,0.984c0.56,0.416,1.096,0.856,1.608,1.32c0.528,0.448,0.936,0.84,1.224,1.176
		c-0.144,0.128-0.344,0.32-0.6,0.576c-0.256,0.24-0.512,0.488-0.768,0.744C30.316,59.627,30.132,59.843,30.004,60.019z"/>
	<path d="M41.668,53.947l2.688,0.744c-0.192,0.528-0.464,1.16-0.816,1.896c-0.336,0.736-0.664,1.408-0.984,2.016h3.24v2.448h-5.088
		v2.136h6.096v2.52h-5.52c0.464,0.976,1.168,1.856,2.112,2.64c0.944,0.768,2.096,1.4,3.456,1.896
		c-0.176,0.16-0.384,0.384-0.624,0.672c-0.224,0.288-0.44,0.584-0.648,0.888c-0.192,0.304-0.344,0.568-0.456,0.792
		c-1.216-0.496-2.32-1.176-3.312-2.04s-1.792-1.848-2.4-2.952c-0.608,1.008-1.416,1.92-2.424,2.736
		c-1.008,0.816-2.184,1.528-3.528,2.136c-0.112-0.224-0.272-0.488-0.48-0.792c-0.208-0.304-0.432-0.592-0.672-0.864
		c-0.224-0.288-0.424-0.496-0.6-0.624c2.656-0.992,4.456-2.488,5.4-4.488h-5.04v-2.52h5.664c0-0.048,0-0.096,0-0.144
		c0.016-0.048,0.024-0.096,0.024-0.144v-1.848h-4.968v-2.448h2.952c-0.272-0.608-0.592-1.216-0.96-1.824
		c-0.368-0.624-0.728-1.144-1.08-1.56l2.328-1.176c0.416,0.512,0.832,1.112,1.248,1.8c0.416,0.672,0.752,1.264,1.008,1.776
		c-0.288,0.144-0.608,0.304-0.96,0.48c-0.352,0.16-0.688,0.328-1.008,0.504h3.36c0.24-0.432,0.496-0.944,0.768-1.536
		c0.272-0.608,0.52-1.192,0.744-1.752C41.412,54.739,41.572,54.283,41.668,53.947 M27.677,54.571c0.4,0.224,0.872,0.552,1.416,0.984
		c0.56,0.416,1.096,0.856,1.608,1.32c0.528,0.448,0.936,0.84,1.224,1.176c-0.144,0.128-0.344,0.32-0.6,0.576
		c-0.256,0.24-0.512,0.488-0.768,0.744c-0.24,0.256-0.424,0.472-0.552,0.648c-0.288-0.352-0.672-0.752-1.152-1.2
		c-0.48-0.448-0.984-0.888-1.512-1.32c-0.528-0.448-1.016-0.808-1.464-1.08L27.677,54.571 M30.965,62.875v8.112
		c0.304,0.768,1.032,1.312,2.184,1.632c1.168,0.32,2.96,0.48,5.376,0.48c2.048,0,3.808-0.032,5.28-0.096
		c1.472-0.08,2.664-0.184,3.576-0.312c-0.08,0.176-0.168,0.456-0.264,0.84c-0.096,0.368-0.176,0.752-0.24,1.152
		s-0.104,0.72-0.12,0.96c-0.448,0-1.032,0-1.752,0c-0.72,0.016-1.488,0.024-2.304,0.024c-0.8,0.016-1.568,0.024-2.304,0.024
		s-1.36,0-1.872,0c-1.696,0-3.104-0.088-4.224-0.264c-1.12-0.16-2.04-0.416-2.76-0.768c-0.72-0.336-1.336-0.76-1.848-1.272
		c-0.288,0.208-0.664,0.456-1.128,0.744c-0.448,0.272-0.912,0.544-1.392,0.816c-0.464,0.288-0.872,0.528-1.224,0.72l-1.176-2.832
		c0.32-0.112,0.704-0.264,1.152-0.456c0.464-0.192,0.912-0.384,1.344-0.576c0.432-0.192,0.752-0.344,0.96-0.456v-5.976h-2.856
		v-2.496H30.965 M41.668,52.447c-0.653,0-1.253,0.43-1.441,1.088c-0.083,0.29-0.229,0.706-0.436,1.236
		c-0.175,0.437-0.372,0.905-0.584,1.388c-0.194-0.345-0.412-0.715-0.654-1.106c-0.442-0.731-0.902-1.393-1.359-1.956
		c-0.293-0.36-0.724-0.554-1.165-0.554c-0.229,0-0.46,0.052-0.676,0.161l-2.328,1.176c-0.41,0.207-0.702,0.59-0.794,1.04
		c-0.091,0.45,0.028,0.917,0.325,1.267c0.213,0.252,0.435,0.558,0.664,0.915h-0.133c-0.008-0.009-0.016-0.019-0.024-0.028
		c-0.343-0.4-0.798-0.839-1.392-1.344c-0.509-0.462-1.088-0.937-1.684-1.38c-0.574-0.457-1.103-0.823-1.578-1.089
		c-0.23-0.129-0.482-0.191-0.732-0.191c-0.395,0-0.785,0.156-1.075,0.453l-1.8,1.848c-0.319,0.327-0.471,0.782-0.413,1.236
		c0.058,0.453,0.319,0.856,0.71,1.093c0.379,0.23,0.807,0.547,1.272,0.942c0.521,0.427,1.005,0.849,1.459,1.273
		c0.429,0.4,0.77,0.755,1.015,1.053c0.143,0.175,0.321,0.312,0.52,0.406h-3.991c-0.828,0-1.5,0.672-1.5,1.5v2.496
		c0,0.828,0.672,1.5,1.5,1.5h1.356v3.53c-0.023,0.01-0.046,0.02-0.069,0.031c-0.421,0.187-0.857,0.374-1.308,0.561
		c-0.432,0.185-0.788,0.326-1.074,0.426c-0.389,0.136-0.706,0.427-0.874,0.804s-0.174,0.806-0.016,1.187l1.176,2.832
		c0.163,0.393,0.485,0.698,0.887,0.839c0.162,0.057,0.331,0.085,0.499,0.085c0.248,0,0.496-0.062,0.718-0.183
		c0.368-0.201,0.796-0.452,1.271-0.747c0.484-0.275,0.953-0.549,1.405-0.824c0.086-0.054,0.169-0.106,0.249-0.156
		c0.404,0.287,0.843,0.541,1.314,0.761c0.845,0.414,1.894,0.71,3.182,0.894c1.171,0.184,2.67,0.279,4.436,0.279h1.872
		c0.746,0,1.524-0.008,2.334-0.024c0.014,0,0.028,0,0.043,0c0.783,0,1.547-0.008,2.265-0.024l1.719,0c0.79,0,1.444-0.612,1.497-1.4
		c0.009-0.133,0.034-0.383,0.104-0.823c0.056-0.351,0.127-0.691,0.21-1.01c0.112-0.446,0.172-0.584,0.178-0.598
		c0.226-0.498,0.164-1.08-0.164-1.519c-0.171-0.229-0.401-0.4-0.658-0.5c0.345-0.352,0.496-0.852,0.401-1.339
		c-0.101-0.515-0.465-0.94-0.958-1.12c-1.182-0.431-2.189-0.978-2.994-1.627h2.432c0.828,0,1.5-0.672,1.5-1.5v-2.52
		c0-0.714-0.499-1.312-1.167-1.463c0.102-0.202,0.159-0.431,0.159-0.673v-2.448c0-0.828-0.672-1.5-1.5-1.5h-0.841
		c0.337-0.71,0.612-1.355,0.81-1.899c0.143-0.393,0.115-0.828-0.076-1.2c-0.192-0.372-0.53-0.647-0.933-0.758l-2.688-0.744
		C41.935,52.465,41.8,52.447,41.668,52.447L41.668,52.447z M30.646,61.375c0.224-0.106,0.422-0.268,0.572-0.474
		c0.018-0.025,0.041-0.055,0.071-0.093v0.242c0,0.128,0.016,0.252,0.046,0.37c-0.118-0.03-0.242-0.046-0.37-0.046H30.646
		L30.646,61.375z M32.465,67.207h1.594c-0.46,0.378-0.991,0.719-1.594,1.025V67.207L32.465,67.207z M37.821,71.594
		c0.037-0.03,0.074-0.059,0.111-0.089c0.517-0.419,0.991-0.864,1.419-1.333c0.411,0.5,0.866,0.972,1.361,1.414
		c-0.689,0.009-1.42,0.014-2.188,0.014C38.283,71.599,38.049,71.598,37.821,71.594L37.821,71.594z"/>
</g>
<path d="M71.537,115v-14.676l1.815,0.104l-6.379,7.804l-0.441-0.648h11.772v3.293H64.64l-1.608-3.059l9.153-11.072h3.112V115H71.537
	z"/>
<path d="M83.058,115.249v-3.719c-0.119,0.256-0.239,0.49-0.358,0.703c-0.111,0.205-0.209,0.375-0.294,0.511
	c-0.128-0.127-0.281-0.255-0.46-0.383c-0.17-0.136-0.345-0.26-0.524-0.371c-0.17-0.119-0.319-0.208-0.447-0.268
	c0.153-0.179,0.324-0.409,0.511-0.69c0.196-0.281,0.388-0.588,0.575-0.92c0.187-0.333,0.358-0.669,0.511-1.01
	c0.162-0.341,0.29-0.656,0.383-0.946h-1.597v-1.61h1.7v-0.729c-0.221,0.034-0.443,0.073-0.665,0.115
	c-0.222,0.035-0.43,0.06-0.626,0.077c-0.051-0.23-0.128-0.481-0.23-0.754c-0.102-0.281-0.209-0.524-0.32-0.728
	c0.307-0.017,0.647-0.052,1.022-0.103c0.383-0.059,0.767-0.132,1.15-0.217c0.392-0.094,0.758-0.196,1.099-0.307
	c0.341-0.119,0.626-0.243,0.856-0.37l0.92,1.354c-0.435,0.188-0.929,0.363-1.482,0.524v1.138h1.112v-0.729h2.607v-0.345
	c-0.349,0.034-0.686,0.06-1.01,0.077c-0.315,0.009-0.601,0.017-0.856,0.026c-0.034-0.256-0.094-0.52-0.179-0.793
	c-0.077-0.281-0.162-0.515-0.256-0.703c0.247,0.009,0.558,0.009,0.933,0c0.383-0.017,0.792-0.042,1.227-0.076
	c0.443-0.043,0.882-0.09,1.316-0.141c0.435-0.051,0.831-0.107,1.189-0.166c0.366-0.068,0.66-0.141,0.882-0.217l0.869,1.367
	c-0.315,0.085-0.673,0.166-1.074,0.243c-0.4,0.068-0.814,0.132-1.24,0.192v0.536h2.735v1.368h-2.735v0.383h2.326v4.205h-2.326v0.384
	h2.467v1.278h-2.467v0.383h2.825v1.342h-7.758v-1.342h3.131v-0.383h-2.339v-1.278h2.339v-0.384h-2.249v-0.971
	c-0.136,0.136-0.273,0.285-0.409,0.447c-0.136,0.154-0.251,0.29-0.345,0.409c-0.204-0.204-0.443-0.477-0.716-0.818v4.409H83.058z
	 M86.253,110.188v-2.62h2.249v-0.383h-2.543v0.971h-1.176v0.396c0.094,0.137,0.221,0.303,0.383,0.499
	c0.17,0.196,0.349,0.396,0.537,0.601C85.899,109.848,86.082,110.026,86.253,110.188z M90.304,110.661h0.716v-0.46h-0.716V110.661z
	 M90.304,109.128h0.716v-0.461h-0.716V109.128z M87.876,110.661h0.626v-0.46h-0.626V110.661z M87.876,109.128h0.626v-0.461h-0.626
	V109.128z M103.745,114.38c-1.083,0-1.876-0.143-2.377-0.429c-0.501-0.297-0.751-0.844-0.751-1.641v-3.911l-3.497,0.721
	l-0.475-2.285c0.388-0.051,0.936-0.123,1.641-0.215c0.716-0.102,1.493-0.22,2.331-0.353v-3.711h2.377v3.343
	c0.797-0.133,1.559-0.261,2.285-0.383c0.726-0.133,1.355-0.251,1.886-0.353c0.532-0.112,0.905-0.199,1.12-0.261l1.457,1.12
	c-0.164,0.256-0.394,0.588-0.69,0.997c-0.297,0.409-0.624,0.843-0.982,1.303c-0.347,0.45-0.695,0.885-1.043,1.304
	c-0.337,0.409-0.639,0.752-0.904,1.028l-1.749-1.488c0.235-0.194,0.511-0.46,0.828-0.798c0.317-0.347,0.634-0.71,0.951-1.088
	l-3.159,0.644v3.466c0,0.245,0.061,0.419,0.184,0.521c0.123,0.102,0.342,0.154,0.659,0.154c0.614,0,1.253-0.026,1.917-0.077
	c0.665-0.061,1.284-0.133,1.856-0.215c0.573-0.092,1.028-0.184,1.365-0.276c-0.071,0.205-0.143,0.465-0.215,0.782
	c-0.061,0.307-0.112,0.614-0.153,0.92c-0.031,0.297-0.051,0.542-0.061,0.737c-0.297,0.071-0.66,0.138-1.089,0.199
	c-0.419,0.051-0.864,0.097-1.334,0.138c-0.461,0.031-0.9,0.056-1.319,0.077C104.384,114.37,104.032,114.38,103.745,114.38z
	 M113.638,114.641c-0.103-0.276-0.251-0.578-0.445-0.905c-0.194-0.337-0.389-0.603-0.583-0.797c1.861-0.419,3.313-1.171,4.356-2.255
	c1.053-1.084,1.707-2.541,1.963-4.371l1.825,0.307c-0.246,1.544-0.68,2.837-1.304,3.88c-0.624,1.033-1.426,1.876-2.408,2.531
	C116.071,113.685,114.936,114.222,113.638,114.641z M115.11,109.243c-0.021-0.215-0.082-0.491-0.184-0.829
	c-0.092-0.347-0.2-0.685-0.322-1.012c-0.113-0.337-0.22-0.588-0.322-0.751l1.702-0.537c0.102,0.194,0.21,0.46,0.322,0.797
	c0.123,0.328,0.235,0.665,0.338,1.013c0.102,0.337,0.168,0.623,0.199,0.859L115.11,109.243z M112.533,109.825
	c-0.03-0.204-0.102-0.475-0.214-0.812c-0.103-0.338-0.22-0.67-0.353-0.997c-0.133-0.328-0.256-0.573-0.368-0.736l1.687-0.614
	c0.112,0.194,0.23,0.455,0.353,0.782c0.132,0.327,0.255,0.66,0.368,0.997c0.112,0.338,0.194,0.624,0.245,0.859L112.533,109.825z
	 M123.806,114.887v-12.592h2.316v4.678l0.736-1.058c0.245,0.173,0.572,0.398,0.981,0.674c0.42,0.266,0.864,0.542,1.335,0.829
	c0.48,0.276,0.935,0.531,1.365,0.766c0.439,0.236,0.802,0.404,1.088,0.506c-0.163,0.154-0.342,0.358-0.536,0.614
	c-0.184,0.256-0.358,0.516-0.522,0.782c-0.163,0.266-0.296,0.496-0.399,0.69c-0.224-0.122-0.511-0.286-0.858-0.491
	c-0.338-0.214-0.701-0.444-1.089-0.69c-0.379-0.255-0.752-0.506-1.12-0.751c-0.368-0.256-0.695-0.491-0.981-0.706v6.749H123.806z"/>
<path d="M30.07,115.516c-0.142-0.186-0.333-0.383-0.573-0.59c-0.229-0.197-0.47-0.382-0.721-0.557
	c-0.251-0.174-0.491-0.311-0.721-0.409c0.568-0.448,1.097-0.999,1.589-1.654c0.502-0.666,0.939-1.376,1.31-2.129
	c0.371-0.753,0.639-1.49,0.803-2.211l2.44,0.802c-0.109,0.35-0.235,0.699-0.377,1.049c-0.142,0.338-0.289,0.676-0.442,1.015
	c0.36,0.677,0.879,1.195,1.556,1.556v-5.175h-3.439V105.1h9.302v2.113h-3.341v1.572h4.438v2.145h-4.438v2.113
	c0.273,0.032,0.557,0.054,0.852,0.065c0.306,0.011,0.622,0.017,0.95,0.017c0.502,0,1.037-0.006,1.605-0.017
	c0.568-0.011,1.119-0.033,1.654-0.065c0.546-0.044,1.015-0.099,1.408-0.164c-0.065,0.164-0.136,0.404-0.213,0.721
	c-0.076,0.305-0.142,0.622-0.196,0.949c-0.055,0.339-0.087,0.623-0.098,0.852h-4.16c-1.267,0-2.342-0.082-3.226-0.246
	c-0.884-0.163-1.632-0.431-2.244-0.802c-0.6-0.36-1.125-0.841-1.572-1.441c-0.306,0.469-0.639,0.928-0.999,1.375
	C30.856,114.724,30.474,115.133,30.07,115.516z M28.793,106.148v-3.963h5.977v-1.736h2.637v1.736h6.076v3.849h-2.407v-1.9h-9.891
	v2.014H28.793z M46.938,115.516v-5.225c-0.568,0.361-1.13,0.683-1.687,0.967c-0.142-0.317-0.338-0.634-0.59-0.95
	c-0.251-0.328-0.519-0.628-0.802-0.901c0.808-0.306,1.648-0.731,2.522-1.277c0.874-0.557,1.66-1.152,2.358-1.785h-4.012v-1.818
	h2.669c-0.087-0.218-0.18-0.431-0.278-0.639c-0.098-0.218-0.202-0.415-0.311-0.589l0.966-0.377
	c-0.295,0.011-0.584,0.016-0.868,0.016c-0.273,0-0.535,0-0.786,0c-0.044-0.283-0.098-0.595-0.164-0.933
	c-0.065-0.349-0.147-0.661-0.246-0.933c0.983,0.032,1.982,0.043,2.997,0.032c1.026-0.011,2.014-0.049,2.964-0.114
	c0.961-0.077,1.84-0.175,2.637-0.295c0.808-0.131,1.49-0.295,2.047-0.491l1.425,1.719c-0.328,0.087-0.693,0.169-1.097,0.246
	c-0.393,0.076-0.813,0.147-1.261,0.213l1.834,0.458c-0.109,0.251-0.229,0.53-0.36,0.835c-0.131,0.295-0.267,0.579-0.409,0.852h2.882
	v1.818H55.29c0.458,0.382,0.972,0.759,1.539,1.13c0.568,0.36,1.141,0.688,1.72,0.982c0.59,0.295,1.146,0.546,1.67,0.754
	c-0.295,0.262-0.584,0.573-0.868,0.933c-0.273,0.36-0.48,0.699-0.622,1.015c-0.251-0.131-0.508-0.267-0.77-0.409
	c-0.251-0.153-0.508-0.306-0.77-0.459v5.225H46.938z M48.559,109.178h6.976c-0.437-0.317-0.852-0.655-1.245-1.015
	c-0.393-0.361-0.764-0.737-1.114-1.13v1.866h-2.326v-1.752c-0.327,0.36-0.688,0.71-1.081,1.048
	C49.389,108.534,48.985,108.861,48.559,109.178z M53.177,104.527h0.868c0.328-0.666,0.595-1.354,0.802-2.063
	c-0.273,0.032-0.551,0.065-0.835,0.098c-0.273,0.033-0.551,0.06-0.835,0.082V104.527z M49.902,104.527h0.95v-1.72
	c-0.273,0.011-0.551,0.028-0.835,0.05c-0.273,0.01-0.546,0.021-0.819,0.032C49.46,103.424,49.695,103.97,49.902,104.527z
	 M49.247,113.796h1.654v-0.721h-1.654V113.796z M53.226,113.796h1.654v-0.721h-1.654V113.796z M49.247,111.618h1.654v-0.704h-1.654
	V111.618z M53.226,111.618h1.654v-0.704h-1.654V111.618z"/>
<path class="st1" d="M33.472,147.594c-0.16-0.342-0.379-0.694-0.656-1.056c-0.267-0.374-0.533-0.678-0.8-0.912
	c0.672-0.288,1.349-0.635,2.032-1.04c0.683-0.406,1.339-0.848,1.968-1.328c0.629-0.491,1.2-0.987,1.712-1.488
	c0.523-0.512,0.949-1.014,1.28-1.504l2.24,0.304c0.373,0.469,0.821,0.938,1.344,1.408c0.523,0.469,1.088,0.917,1.696,1.344
	c0.608,0.416,1.227,0.794,1.856,1.136c0.64,0.33,1.253,0.602,1.84,0.816c-0.181,0.192-0.368,0.421-0.56,0.688
	c-0.192,0.266-0.373,0.538-0.544,0.816c-0.16,0.277-0.293,0.522-0.4,0.736c-0.427-0.214-0.88-0.459-1.36-0.736
	c-0.48-0.288-0.96-0.598-1.44-0.928v1.264h-7.232v-1.296c-0.512,0.352-1.024,0.682-1.536,0.992
	C34.4,147.119,33.92,147.38,33.472,147.594z M41.888,155.594c-0.395-0.235-0.8-0.448-1.216-0.64
	c-0.416-0.182-0.832-0.336-1.248-0.464c0.192-0.246,0.395-0.55,0.608-0.912c0.224-0.363,0.443-0.742,0.656-1.136
	c0.224-0.406,0.427-0.79,0.608-1.152c0.181-0.363,0.331-0.672,0.448-0.928h-6.752v-2.208h8.976l1.2,0.816
	c-0.171,0.49-0.384,1.029-0.64,1.616c-0.256,0.576-0.533,1.168-0.832,1.776c-0.288,0.597-0.587,1.173-0.896,1.728
	C42.491,154.655,42.187,155.156,41.888,155.594z M37.584,144.986h4.928c-0.491-0.384-0.949-0.774-1.376-1.168
	c-0.416-0.395-0.768-0.774-1.056-1.136c-0.277,0.341-0.635,0.714-1.072,1.12C38.57,144.196,38.096,144.591,37.584,144.986z
	 M53.648,155.226c-0.16-0.267-0.373-0.587-0.64-0.96c-0.256-0.374-0.555-0.688-0.896-0.944c1.035-0.288,1.845-0.598,2.432-0.928
	c0.587-0.331,1.013-0.71,1.28-1.136c-0.107,0.032-0.213,0.058-0.32,0.08c-0.096,0.021-0.203,0.032-0.32,0.032
	c-0.875,0-1.595-0.24-2.16-0.72c-0.555-0.491-0.853-1.184-0.896-2.08c-0.021-0.576,0.096-1.094,0.352-1.552
	c0.256-0.47,0.619-0.838,1.088-1.104c0.469-0.278,1.003-0.416,1.6-0.416c0.021,0,0.048,0,0.08,0c0.032,0,0.059,0.005,0.08,0.016
	c-0.032-0.278-0.048-0.571-0.048-0.88c-0.864,0.032-1.701,0.08-2.512,0.144c-0.811,0.064-1.552,0.138-2.224,0.224
	c-0.661,0.085-1.211,0.181-1.648,0.288l-0.304-2.272c0.341-0.022,0.853-0.048,1.536-0.08c0.683-0.032,1.472-0.07,2.368-0.112
	c0.896-0.043,1.824-0.086,2.784-0.128v-2.08h2.288v1.984c0.853-0.032,1.659-0.059,2.416-0.08c0.757-0.032,1.424-0.054,2-0.064
	c0.576-0.011,1.008-0.016,1.296-0.016l-0.16,2.288c-0.587-0.086-1.376-0.139-2.368-0.16c-0.981-0.032-2.043-0.038-3.184-0.016
	c0,0.352,0.011,0.704,0.032,1.056c0.021,0.341,0.048,0.666,0.08,0.976c0.576,0.672,0.864,1.562,0.864,2.672
	c0,1.514-0.427,2.768-1.28,3.76C56.41,154.01,55.205,154.746,53.648,155.226z M55.2,149.418c0.277-0.022,0.485-0.118,0.624-0.288
	c0.149-0.182,0.224-0.4,0.224-0.656c0-0.16-0.037-0.347-0.112-0.56c-0.192-0.246-0.437-0.368-0.736-0.368
	c-0.267,0-0.491,0.09-0.672,0.272c-0.181,0.17-0.267,0.389-0.256,0.656c0.011,0.277,0.101,0.512,0.272,0.704
	C54.715,149.359,54.933,149.439,55.2,149.418z M71.44,155.21c-0.203-0.406-0.475-0.864-0.816-1.376
	c-0.331-0.523-0.699-1.056-1.104-1.6c-0.405-0.544-0.816-1.067-1.232-1.568c-0.405-0.512-0.789-0.966-1.152-1.36
	c-0.352-0.395-0.645-0.694-0.88-0.896c-0.373-0.342-0.56-0.656-0.56-0.944c0-0.288,0.165-0.566,0.496-0.832
	c0.256-0.214,0.565-0.496,0.928-0.848c0.363-0.363,0.747-0.763,1.152-1.2c0.416-0.448,0.821-0.912,1.216-1.392
	c0.395-0.48,0.752-0.95,1.072-1.408c0.32-0.47,0.571-0.896,0.752-1.28l2.256,1.536c-0.192,0.245-0.443,0.544-0.752,0.896
	c-0.309,0.341-0.645,0.709-1.008,1.104c-0.363,0.394-0.731,0.789-1.104,1.184c-0.373,0.384-0.725,0.746-1.056,1.088
	c-0.32,0.33-0.592,0.608-0.816,0.832s-0.208,0.464,0.048,0.72c0.203,0.192,0.469,0.48,0.8,0.864
	c0.341,0.373,0.709,0.794,1.104,1.264c0.395,0.469,0.784,0.944,1.168,1.424c0.395,0.48,0.752,0.928,1.072,1.344
	c0.331,0.416,0.581,0.757,0.752,1.024c-0.235,0.096-0.501,0.224-0.8,0.384c-0.299,0.16-0.587,0.33-0.864,0.512
	C71.835,154.863,71.61,155.039,71.44,155.21z M74.848,146.282c-0.203-0.331-0.464-0.667-0.784-1.008
	c-0.32-0.352-0.608-0.635-0.864-0.848l1.008-0.88c0.149,0.117,0.331,0.293,0.544,0.528c0.224,0.224,0.443,0.458,0.656,0.704
	c0.213,0.234,0.379,0.437,0.496,0.608L74.848,146.282z M76.336,144.986c-0.203-0.32-0.464-0.651-0.784-0.992
	c-0.32-0.352-0.608-0.64-0.864-0.864l1.008-0.864c0.149,0.117,0.331,0.293,0.544,0.528c0.224,0.224,0.443,0.458,0.656,0.704
	c0.213,0.234,0.379,0.437,0.496,0.608L76.336,144.986z M79.888,155.146c-0.256-0.15-0.565-0.299-0.928-0.448
	c-0.352-0.15-0.661-0.262-0.928-0.336c0.192-0.256,0.384-0.566,0.576-0.928c0.192-0.363,0.368-0.736,0.528-1.12
	c0.16-0.395,0.283-0.747,0.368-1.056h-0.528v-10.24h4.64v10.24H83.28c0.128,0.416,0.299,0.832,0.512,1.248v-1.328h0.752v-3.856h2.88
	v-0.464h-3.552v-1.584h2v-0.512h-1.28v-1.424h1.28v-0.464h-1.936v-1.456h1.936v-0.944h1.968v0.944h1.104v-0.944h1.968v0.944h2.128
	v1.456h-2.128v0.464h1.568v1.424h-1.568v0.512h2.24v1.584h-3.776v0.464h2.896v3.856h1.056v1.536h-1.056v0.816
	c0,0.565-0.149,0.97-0.448,1.216c-0.288,0.256-0.763,0.384-1.424,0.384h-1.04c-0.021-0.278-0.075-0.587-0.16-0.928
	c-0.085-0.331-0.176-0.614-0.272-0.848h0.784c0.181,0,0.315-0.027,0.4-0.08c0.085-0.054,0.128-0.176,0.128-0.368v-0.192h-3.664
	v2.368h-2.032v-0.928c-0.245,0.106-0.512,0.234-0.8,0.384c-0.288,0.149-0.539,0.293-0.752,0.432
	c-0.192-0.278-0.389-0.603-0.592-0.976c-0.203-0.374-0.389-0.758-0.56-1.152c-0.16-0.406-0.293-0.779-0.4-1.12l1.264-0.464h-2.816
	l1.472,0.448c-0.085,0.341-0.208,0.72-0.368,1.136c-0.149,0.416-0.32,0.826-0.512,1.232
	C80.288,154.479,80.09,154.836,79.888,155.146z M80.784,149.386h1.008v-1.088h-1.008V149.386z M80.784,146.618h1.008v-1.024h-1.008
	V146.618z M80.784,143.914h1.008v-1.024h-1.008V143.914z M87.84,145.274h1.104v-0.512H87.84V145.274z M87.84,143.338h1.104v-0.464
	H87.84V143.338z M89.376,151.178h0.864v-0.528h-0.864V151.178z M86.576,151.178h0.848v-0.528h-0.848V151.178z M89.376,149.258h0.864
	v-0.512h-0.864V149.258z M86.576,149.258h0.848v-0.512h-0.848V149.258z M84.544,153.802v-1.088h-0.656
	c0.107,0.202,0.213,0.4,0.32,0.592C84.325,153.487,84.437,153.652,84.544,153.802z M95.616,155.226
	c-0.192-0.363-0.427-0.72-0.704-1.072c-0.267-0.342-0.555-0.646-0.864-0.912c1.323-0.598,2.411-1.328,3.264-2.192
	c0.853-0.864,1.509-1.835,1.968-2.912c0.469-1.078,0.779-2.224,0.928-3.44l1.36,0.224c-0.043-0.31-0.075-0.619-0.096-0.928
	c-0.011-0.31-0.016-0.63-0.016-0.96h-3.6v-2.192h6.048c-0.128,1.312-0.139,2.56-0.032,3.744c0.117,1.184,0.389,2.298,0.816,3.344
	c0.427,1.034,1.051,2,1.872,2.896c0.832,0.885,1.904,1.685,3.216,2.4c-0.331,0.234-0.651,0.533-0.96,0.896
	c-0.309,0.373-0.587,0.741-0.832,1.104c-0.843-0.555-1.648-1.211-2.416-1.968c-0.757-0.758-1.44-1.622-2.048-2.592
	c-0.597-0.971-1.077-2.043-1.44-3.216c-0.32,1.12-0.784,2.17-1.392,3.152c-0.608,0.981-1.339,1.866-2.192,2.656
	C97.643,154.036,96.683,154.692,95.616,155.226z"/>
<g>
	<defs>
		<rect id="SVGID_1_" x="117.035" y="141.82" width="13.972" height="10.978"/>
	</defs>
	<clipPath id="SVGID_00000002369236100697623830000016042680383872363407_">
		<use xlink:href="#SVGID_1_"  style="overflow:visible;"/>
	</clipPath>
	<g style="clip-path:url(#SVGID_00000002369236100697623830000016042680383872363407_);">
		<path class="st0" d="M127.824,145.388h-10.789v3.842h10.789V145.388z"/>
		<path class="st0" d="M126.859,141.82h-4.438l4.148,5.489l-4.148,5.489h4.438l4.147-5.489L126.859,141.82z"/>
	</g>
</g>
</svg>
